<svg xmlns="http://www.w3.org/2000/svg" xmlns:xlink="http://www.w3.org/1999/xlink" width="1080" zoomAndPan="magnify" viewBox="0 0 810 809.999993" height="1080" preserveAspectRatio="xMidYMid meet" version="1.0"><defs><clipPath id="6de4ce60cf"><path d="M 9.75 42 L 800.25 42 L 800.25 669 L 9.75 669 Z M 9.75 42 " clip-rule="nonzero"/></clipPath></defs><path fill="#ffd068" d="M 470.875 767.3125 L 339.125 767.3125 C 338.585938 767.3125 338.046875 767.285156 337.507812 767.230469 C 336.972656 767.179688 336.441406 767.101562 335.910156 766.996094 C 335.382812 766.890625 334.859375 766.757812 334.34375 766.601562 C 333.828125 766.445312 333.320312 766.261719 332.820312 766.058594 C 332.324219 765.851562 331.835938 765.621094 331.359375 765.367188 C 330.882812 765.113281 330.421875 764.835938 329.972656 764.535156 C 329.523438 764.234375 329.09375 763.914062 328.675781 763.574219 C 328.257812 763.230469 327.859375 762.867188 327.476562 762.488281 C 327.097656 762.105469 326.734375 761.707031 326.394531 761.289062 C 326.050781 760.871094 325.730469 760.441406 325.429688 759.992188 C 325.128906 759.542969 324.851562 759.082031 324.597656 758.605469 C 324.34375 758.128906 324.113281 757.644531 323.90625 757.144531 C 323.703125 756.644531 323.519531 756.140625 323.363281 755.621094 C 323.207031 755.105469 323.078125 754.582031 322.972656 754.054688 C 322.867188 753.527344 322.785156 752.992188 322.734375 752.457031 C 322.679688 751.917969 322.65625 751.382812 322.65625 750.84375 L 322.65625 652.03125 C 322.65625 651.492188 322.679688 650.953125 322.734375 650.414062 C 322.785156 649.878906 322.867188 649.347656 322.972656 648.816406 C 323.078125 648.289062 323.207031 647.765625 323.363281 647.25 C 323.519531 646.734375 323.703125 646.226562 323.910156 645.726562 C 324.113281 645.230469 324.34375 644.742188 324.597656 644.265625 C 324.851562 643.789062 325.128906 643.328125 325.429688 642.878906 C 325.730469 642.429688 326.050781 642 326.394531 641.582031 C 326.734375 641.164062 327.097656 640.765625 327.476562 640.382812 C 327.859375 640.003906 328.257812 639.640625 328.675781 639.300781 C 329.09375 638.957031 329.523438 638.636719 329.972656 638.335938 C 330.421875 638.035156 330.882812 637.761719 331.359375 637.503906 C 331.835938 637.25 332.324219 637.019531 332.820312 636.816406 C 333.320312 636.609375 333.828125 636.425781 334.34375 636.269531 C 334.859375 636.113281 335.382812 635.984375 335.910156 635.878906 C 336.441406 635.773438 336.972656 635.691406 337.507812 635.640625 C 338.046875 635.585938 338.585938 635.5625 339.125 635.5625 L 470.875 635.5625 C 471.414062 635.5625 471.949219 635.585938 472.488281 635.640625 C 473.023438 635.691406 473.558594 635.773438 474.085938 635.878906 C 474.613281 635.984375 475.136719 636.113281 475.652344 636.269531 C 476.171875 636.425781 476.675781 636.609375 477.175781 636.816406 C 477.675781 637.019531 478.160156 637.25 478.636719 637.503906 C 479.113281 637.761719 479.574219 638.035156 480.023438 638.335938 C 480.472656 638.636719 480.902344 638.957031 481.320312 639.300781 C 481.738281 639.640625 482.136719 640.003906 482.519531 640.382812 C 482.898438 640.765625 483.261719 641.164062 483.605469 641.582031 C 483.945312 642 484.265625 642.429688 484.566406 642.878906 C 484.867188 643.328125 485.144531 643.789062 485.398438 644.265625 C 485.652344 644.742188 485.882812 645.230469 486.089844 645.726562 C 486.292969 646.226562 486.476562 646.734375 486.632812 647.25 C 486.789062 647.765625 486.921875 648.289062 487.027344 648.816406 C 487.132812 649.347656 487.210938 649.878906 487.261719 650.414062 C 487.316406 650.953125 487.34375 651.492188 487.34375 652.03125 L 487.34375 750.84375 C 487.34375 751.382812 487.316406 751.917969 487.261719 752.457031 C 487.210938 752.992188 487.132812 753.527344 487.027344 754.054688 C 486.921875 754.582031 486.789062 755.105469 486.632812 755.621094 C 486.476562 756.140625 486.292969 756.644531 486.089844 757.144531 C 485.882812 757.644531 485.652344 758.128906 485.398438 758.605469 C 485.144531 759.082031 484.867188 759.542969 484.566406 759.992188 C 484.265625 760.441406 483.945312 760.871094 483.605469 761.289062 C 483.261719 761.707031 482.898438 762.105469 482.519531 762.488281 C 482.136719 762.867188 481.738281 763.230469 481.320312 763.574219 C 480.902344 763.914062 480.472656 764.234375 480.023438 764.535156 C 479.574219 764.835938 479.113281 765.113281 478.636719 765.367188 C 478.160156 765.621094 477.675781 765.851562 477.175781 766.058594 C 476.675781 766.261719 476.171875 766.445312 475.652344 766.601562 C 475.136719 766.757812 474.613281 766.890625 474.085938 766.996094 C 473.558594 767.101562 473.023438 767.179688 472.488281 767.230469 C 471.949219 767.285156 471.414062 767.3125 470.875 767.3125 Z M 355.59375 734.375 L 454.40625 734.375 L 454.40625 668.5 L 355.59375 668.5 Z M 355.59375 734.375 " fill-opacity="1" fill-rule="nonzero"/><path fill="#ffd068" d="M 256.78125 734.375 L 553.21875 734.375 L 553.21875 767.3125 L 256.78125 767.3125 Z M 256.78125 734.375 " fill-opacity="1" fill-rule="nonzero"/><path fill="#ffd068" d="M 405 470.875 C 402.035156 470.875 399.070312 470.800781 396.109375 470.65625 C 393.148438 470.507812 390.191406 470.292969 387.242188 470 C 384.292969 469.710938 381.351562 469.347656 378.417969 468.914062 C 375.484375 468.476562 372.5625 467.972656 369.65625 467.390625 C 366.75 466.8125 363.855469 466.164062 360.980469 465.445312 C 358.105469 464.722656 355.25 463.933594 352.410156 463.074219 C 349.574219 462.210938 346.761719 461.28125 343.96875 460.285156 C 341.175781 459.285156 338.410156 458.21875 335.671875 457.082031 C 332.933594 455.949219 330.222656 454.746094 327.542969 453.480469 C 324.863281 452.210938 322.214844 450.878906 319.601562 449.484375 C 316.988281 448.085938 314.410156 446.625 311.867188 445.101562 C 309.324219 443.574219 306.820312 441.988281 304.351562 440.34375 C 301.886719 438.695312 299.464844 436.988281 297.082031 435.222656 C 294.703125 433.457031 292.367188 431.632812 290.074219 429.753906 C 287.78125 427.871094 285.539062 425.9375 283.339844 423.945312 C 281.144531 421.953125 278.996094 419.910156 276.902344 417.8125 C 274.804688 415.71875 272.761719 413.570312 270.769531 411.375 C 268.78125 409.175781 266.84375 406.933594 264.960938 404.640625 C 263.082031 402.347656 261.257812 400.011719 259.492188 397.632812 C 257.726562 395.25 256.019531 392.828125 254.371094 390.363281 C 252.726562 387.898438 251.140625 385.394531 249.617188 382.851562 C 248.089844 380.308594 246.628906 377.726562 245.234375 375.113281 C 243.835938 372.5 242.503906 369.851562 241.234375 367.171875 C 239.96875 364.492188 238.765625 361.78125 237.632812 359.042969 C 236.496094 356.304688 235.429688 353.539062 234.433594 350.746094 C 233.433594 347.957031 232.503906 345.140625 231.644531 342.304688 C 230.78125 339.46875 229.992188 336.609375 229.269531 333.734375 C 228.550781 330.859375 227.902344 327.964844 227.324219 325.058594 C 226.746094 322.152344 226.238281 319.230469 225.804688 316.296875 C 225.367188 313.367188 225.003906 310.425781 224.714844 307.472656 C 224.421875 304.523438 224.207031 301.566406 224.058594 298.605469 C 223.914062 295.644531 223.84375 292.683594 223.84375 289.71875 C 223.84375 286.753906 223.914062 283.789062 224.058594 280.828125 C 224.207031 277.867188 224.425781 274.910156 224.714844 271.960938 C 225.003906 269.011719 225.367188 266.070312 225.804688 263.136719 C 226.238281 260.203125 226.746094 257.28125 227.324219 254.375 C 227.902344 251.46875 228.550781 248.574219 229.269531 245.699219 C 229.992188 242.824219 230.78125 239.96875 231.644531 237.128906 C 232.503906 234.292969 233.433594 231.480469 234.433594 228.6875 C 235.429688 225.894531 236.496094 223.128906 237.632812 220.390625 C 238.765625 217.652344 239.96875 214.941406 241.234375 212.261719 C 242.503906 209.582031 243.835938 206.933594 245.234375 204.320312 C 246.628906 201.707031 248.089844 199.128906 249.617188 196.585938 C 251.140625 194.042969 252.726562 191.539062 254.371094 189.070312 C 256.019531 186.605469 257.726562 184.183594 259.492188 181.800781 C 261.257812 179.421875 263.082031 177.085938 264.960938 174.792969 C 266.84375 172.5 268.78125 170.257812 270.769531 168.058594 C 272.761719 165.863281 274.804688 163.714844 276.902344 161.621094 C 278.996094 159.523438 281.144531 157.480469 283.339844 155.488281 C 285.539062 153.5 287.78125 151.5625 290.074219 149.679688 C 292.367188 147.800781 294.703125 145.976562 297.082031 144.210938 C 299.464844 142.445312 301.886719 140.738281 304.351562 139.089844 C 306.820312 137.445312 309.324219 135.859375 311.867188 134.335938 C 314.410156 132.808594 316.988281 131.347656 319.601562 129.953125 C 322.214844 128.554688 324.863281 127.222656 327.542969 125.953125 C 330.222656 124.6875 332.933594 123.484375 335.671875 122.351562 C 338.410156 121.214844 341.175781 120.148438 343.96875 119.152344 C 346.761719 118.152344 349.574219 117.222656 352.410156 116.363281 C 355.25 115.5 358.105469 114.710938 360.980469 113.988281 C 363.855469 113.269531 366.75 112.621094 369.65625 112.042969 C 372.5625 111.464844 375.484375 110.957031 378.417969 110.523438 C 381.351562 110.085938 384.292969 109.722656 387.242188 109.433594 C 390.191406 109.144531 393.148438 108.925781 396.109375 108.777344 C 399.070312 108.632812 402.035156 108.5625 405 108.5625 C 407.964844 108.5625 410.925781 108.632812 413.886719 108.777344 C 416.847656 108.925781 419.804688 109.144531 422.753906 109.433594 C 425.707031 109.722656 428.648438 110.085938 431.578125 110.523438 C 434.511719 110.957031 437.433594 111.464844 440.339844 112.042969 C 443.246094 112.621094 446.140625 113.269531 449.015625 113.988281 C 451.890625 114.710938 454.75 115.5 457.585938 116.363281 C 460.421875 117.222656 463.238281 118.152344 466.027344 119.152344 C 468.820312 120.148438 471.585938 121.214844 474.324219 122.351562 C 477.0625 123.484375 479.773438 124.6875 482.453125 125.953125 C 485.132812 127.222656 487.78125 128.554688 490.394531 129.953125 C 493.007812 131.347656 495.589844 132.808594 498.132812 134.335938 C 500.675781 135.859375 503.179688 137.445312 505.644531 139.089844 C 508.109375 140.738281 510.53125 142.445312 512.914062 144.210938 C 515.292969 145.976562 517.632812 147.800781 519.921875 149.679688 C 522.214844 151.5625 524.457031 153.5 526.65625 155.488281 C 528.851562 157.480469 531 159.523438 533.09375 161.621094 C 535.191406 163.714844 537.234375 165.863281 539.226562 168.058594 C 541.21875 170.257812 543.152344 172.5 545.035156 174.792969 C 546.914062 177.085938 548.738281 179.421875 550.503906 181.800781 C 552.269531 184.183594 553.976562 186.605469 555.625 189.070312 C 557.269531 191.539062 558.855469 194.042969 560.382812 196.585938 C 561.90625 199.128906 563.367188 201.707031 564.765625 204.320312 C 566.160156 206.933594 567.492188 209.582031 568.761719 212.261719 C 570.027344 214.941406 571.230469 217.652344 572.363281 220.390625 C 573.5 223.128906 574.566406 225.894531 575.566406 228.6875 C 576.5625 231.480469 577.492188 234.292969 578.355469 237.128906 C 579.214844 239.96875 580.003906 242.824219 580.726562 245.699219 C 581.445312 248.574219 582.09375 251.46875 582.671875 254.375 C 583.253906 257.28125 583.757812 260.203125 584.195312 263.136719 C 584.628906 266.070312 584.992188 269.011719 585.28125 271.960938 C 585.574219 274.910156 585.789062 277.867188 585.9375 280.828125 C 586.082031 283.789062 586.15625 286.753906 586.15625 289.71875 C 586.152344 292.679688 586.074219 295.644531 585.925781 298.601562 C 585.777344 301.5625 585.554688 304.519531 585.261719 307.46875 C 584.96875 310.417969 584.605469 313.355469 584.167969 316.289062 C 583.726562 319.21875 583.21875 322.136719 582.636719 325.042969 C 582.058594 327.949219 581.40625 330.839844 580.683594 333.714844 C 579.960938 336.589844 579.167969 339.445312 578.304688 342.28125 C 577.445312 345.117188 576.511719 347.929688 575.511719 350.71875 C 574.511719 353.507812 573.445312 356.273438 572.308594 359.007812 C 571.171875 361.746094 569.96875 364.453125 568.699219 367.132812 C 567.433594 369.8125 566.097656 372.457031 564.699219 375.070312 C 563.300781 377.683594 561.839844 380.261719 560.316406 382.804688 C 558.792969 385.34375 557.207031 387.847656 555.558594 390.3125 C 553.910156 392.777344 552.203125 395.199219 550.4375 397.578125 C 548.671875 399.957031 546.847656 402.292969 544.96875 404.582031 C 543.089844 406.875 541.152344 409.117188 539.160156 411.3125 C 537.171875 413.511719 535.128906 415.65625 533.03125 417.75 C 530.9375 419.847656 528.792969 421.890625 526.59375 423.878906 C 524.398438 425.871094 522.15625 427.808594 519.863281 429.6875 C 517.574219 431.566406 515.238281 433.390625 512.859375 435.15625 C 510.480469 436.921875 508.054688 438.628906 505.59375 440.277344 C 503.128906 441.925781 500.625 443.511719 498.085938 445.035156 C 495.542969 446.558594 492.964844 448.019531 490.351562 449.417969 C 487.738281 450.816406 485.09375 452.152344 482.414062 453.417969 C 479.734375 454.6875 477.027344 455.890625 474.289062 457.027344 C 471.554688 458.164062 468.789062 459.230469 466 460.230469 C 463.210938 461.230469 460.398438 462.164062 457.5625 463.023438 C 454.726562 463.886719 451.871094 464.679688 448.996094 465.402344 C 446.121094 466.125 443.230469 466.777344 440.324219 467.355469 C 437.417969 467.9375 434.5 468.445312 431.570312 468.886719 C 428.636719 469.324219 425.699219 469.6875 422.75 469.980469 C 419.800781 470.273438 416.84375 470.496094 413.882812 470.644531 C 410.925781 470.792969 407.960938 470.871094 405 470.875 Z M 405 141.5 C 402.574219 141.5 400.148438 141.558594 397.726562 141.675781 C 395.304688 141.796875 392.882812 141.972656 390.46875 142.210938 C 388.054688 142.449219 385.648438 142.746094 383.25 143.101562 C 380.851562 143.457031 378.460938 143.875 376.082031 144.347656 C 373.703125 144.820312 371.335938 145.351562 368.984375 145.941406 C 366.632812 146.53125 364.292969 147.175781 361.972656 147.878906 C 359.652344 148.585938 357.347656 149.34375 355.066406 150.164062 C 352.78125 150.980469 350.519531 151.851562 348.277344 152.78125 C 346.035156 153.710938 343.820312 154.691406 341.625 155.730469 C 339.433594 156.765625 337.269531 157.855469 335.128906 159 C 332.988281 160.144531 330.878906 161.339844 328.796875 162.585938 C 326.71875 163.832031 324.667969 165.128906 322.652344 166.476562 C 320.636719 167.824219 318.652344 169.222656 316.703125 170.667969 C 314.757812 172.113281 312.84375 173.605469 310.96875 175.140625 C 309.09375 176.679688 307.257812 178.265625 305.460938 179.894531 C 303.664062 181.523438 301.90625 183.195312 300.191406 184.910156 C 298.476562 186.625 296.804688 188.382812 295.175781 190.179688 C 293.546875 191.976562 291.960938 193.8125 290.421875 195.6875 C 288.886719 197.5625 287.394531 199.476562 285.949219 201.421875 C 284.503906 203.371094 283.105469 205.355469 281.757812 207.371094 C 280.410156 209.386719 279.113281 211.4375 277.867188 213.515625 C 276.621094 215.597656 275.425781 217.707031 274.28125 219.847656 C 273.136719 221.988281 272.046875 224.152344 271.011719 226.34375 C 269.972656 228.539062 268.992188 230.753906 268.0625 232.996094 C 267.132812 235.238281 266.261719 237.5 265.445312 239.785156 C 264.625 242.066406 263.867188 244.371094 263.160156 246.691406 C 262.457031 249.011719 261.8125 251.351562 261.222656 253.703125 C 260.632812 256.054688 260.101562 258.421875 259.628906 260.800781 C 259.15625 263.179688 258.738281 265.570312 258.382812 267.96875 C 258.027344 270.367188 257.730469 272.773438 257.492188 275.1875 C 257.253906 277.601562 257.078125 280.023438 256.957031 282.445312 C 256.839844 284.867188 256.78125 287.292969 256.78125 289.71875 C 256.78125 292.144531 256.839844 294.566406 256.957031 296.988281 C 257.078125 299.414062 257.253906 301.832031 257.492188 304.246094 C 257.730469 306.660156 258.027344 309.066406 258.382812 311.464844 C 258.738281 313.863281 259.15625 316.253906 259.628906 318.632812 C 260.101562 321.011719 260.632812 323.378906 261.222656 325.730469 C 261.8125 328.085938 262.457031 330.421875 263.160156 332.742188 C 263.867188 335.0625 264.625 337.367188 265.445312 339.652344 C 266.261719 341.933594 267.132812 344.195312 268.0625 346.4375 C 268.992188 348.679688 269.972656 350.894531 271.011719 353.089844 C 272.046875 355.28125 273.136719 357.449219 274.28125 359.585938 C 275.425781 361.726562 276.621094 363.835938 277.867188 365.917969 C 279.113281 367.996094 280.410156 370.046875 281.757812 372.0625 C 283.105469 374.078125 284.503906 376.0625 285.949219 378.011719 C 287.394531 379.960938 288.886719 381.871094 290.421875 383.746094 C 291.960938 385.621094 293.546875 387.457031 295.175781 389.253906 C 296.804688 391.050781 298.476562 392.808594 300.191406 394.523438 C 301.90625 396.238281 303.664062 397.910156 305.460938 399.539062 C 307.257812 401.167969 309.09375 402.753906 310.96875 404.292969 C 312.84375 405.832031 314.757812 407.324219 316.703125 408.765625 C 318.652344 410.210938 320.636719 411.609375 322.652344 412.957031 C 324.667969 414.304688 326.71875 415.601562 328.796875 416.847656 C 330.878906 418.09375 332.988281 419.289062 335.128906 420.433594 C 337.269531 421.578125 339.433594 422.667969 341.625 423.707031 C 343.820312 424.742188 346.035156 425.726562 348.277344 426.652344 C 350.519531 427.582031 352.78125 428.453125 355.066406 429.273438 C 357.347656 430.089844 359.652344 430.847656 361.972656 431.554688 C 364.292969 432.257812 366.632812 432.90625 368.984375 433.492188 C 371.335938 434.082031 373.703125 434.613281 376.082031 435.085938 C 378.460938 435.5625 380.851562 435.976562 383.25 436.332031 C 385.648438 436.6875 388.054688 436.984375 390.46875 437.222656 C 392.882812 437.460938 395.304688 437.636719 397.726562 437.757812 C 400.148438 437.875 402.574219 437.9375 405 437.9375 C 407.425781 437.9375 409.847656 437.875 412.269531 437.757812 C 414.695312 437.636719 417.113281 437.460938 419.527344 437.222656 C 421.941406 436.984375 424.347656 436.6875 426.746094 436.332031 C 429.144531 435.976562 431.535156 435.5625 433.914062 435.085938 C 436.292969 434.613281 438.660156 434.082031 441.011719 433.492188 C 443.367188 432.90625 445.703125 432.257812 448.023438 431.554688 C 450.34375 430.847656 452.648438 430.089844 454.933594 429.273438 C 457.214844 428.453125 459.476562 427.582031 461.71875 426.652344 C 463.960938 425.726562 466.175781 424.742188 468.371094 423.707031 C 470.5625 422.667969 472.730469 421.578125 474.867188 420.433594 C 477.007812 419.289062 479.117188 418.09375 481.199219 416.847656 C 483.277344 415.601562 485.328125 414.304688 487.34375 412.957031 C 489.359375 411.609375 491.34375 410.210938 493.292969 408.765625 C 495.242188 407.324219 497.152344 405.832031 499.027344 404.292969 C 500.902344 402.753906 502.738281 401.167969 504.535156 399.539062 C 506.332031 397.910156 508.089844 396.238281 509.804688 394.523438 C 511.519531 392.808594 513.191406 391.050781 514.820312 389.253906 C 516.449219 387.457031 518.035156 385.621094 519.574219 383.746094 C 521.113281 381.871094 522.605469 379.960938 524.046875 378.011719 C 525.492188 376.0625 526.890625 374.078125 528.238281 372.0625 C 529.585938 370.046875 530.882812 367.996094 532.128906 365.917969 C 533.375 363.835938 534.570312 361.726562 535.714844 359.585938 C 536.859375 357.449219 537.949219 355.28125 538.988281 353.089844 C 540.023438 350.894531 541.007812 348.679688 541.933594 346.4375 C 542.863281 344.195312 543.734375 341.933594 544.554688 339.652344 C 545.371094 337.367188 546.128906 335.0625 546.835938 332.742188 C 547.539062 330.421875 548.1875 328.085938 548.773438 325.730469 C 549.363281 323.378906 549.894531 321.011719 550.367188 318.632812 C 550.84375 316.253906 551.257812 313.863281 551.613281 311.464844 C 551.96875 309.066406 552.265625 306.660156 552.503906 304.246094 C 552.742188 301.832031 552.917969 299.414062 553.039062 296.988281 C 553.15625 294.566406 553.21875 292.144531 553.21875 289.71875 C 553.214844 287.292969 553.152344 284.867188 553.03125 282.445312 C 552.910156 280.023438 552.730469 277.605469 552.488281 275.195312 C 552.25 272.78125 551.949219 270.375 551.589844 267.976562 C 551.234375 265.578125 550.816406 263.191406 550.34375 260.8125 C 549.867188 258.433594 549.332031 256.070312 548.742188 253.71875 C 548.152344 251.367188 547.503906 249.03125 546.796875 246.710938 C 546.09375 244.390625 545.332031 242.089844 544.511719 239.804688 C 543.695312 237.523438 542.820312 235.261719 541.890625 233.023438 C 540.960938 230.78125 539.976562 228.566406 538.941406 226.375 C 537.902344 224.183594 536.8125 222.019531 535.667969 219.878906 C 534.523438 217.742188 533.328125 215.632812 532.082031 213.554688 C 530.832031 211.472656 529.535156 209.425781 528.1875 207.410156 C 526.839844 205.394531 525.441406 203.414062 524 201.464844 C 522.554688 199.515625 521.0625 197.605469 519.523438 195.730469 C 517.984375 193.859375 516.398438 192.023438 514.773438 190.226562 C 513.144531 188.429688 511.472656 186.671875 509.757812 184.957031 C 508.042969 183.242188 506.285156 181.574219 504.488281 179.945312 C 502.691406 178.316406 500.859375 176.730469 498.984375 175.191406 C 497.109375 173.652344 495.199219 172.164062 493.25 170.71875 C 491.304688 169.273438 489.320312 167.875 487.304688 166.527344 C 485.289062 165.179688 483.242188 163.882812 481.164062 162.636719 C 479.082031 161.386719 476.972656 160.191406 474.835938 159.046875 C 472.699219 157.902344 470.53125 156.8125 468.339844 155.777344 C 466.148438 154.738281 463.933594 153.753906 461.695312 152.824219 C 459.453125 151.894531 457.191406 151.023438 454.910156 150.203125 C 452.628906 149.386719 450.324219 148.621094 448.003906 147.917969 C 445.6875 147.210938 443.351562 146.5625 440.996094 145.972656 C 438.644531 145.382812 436.28125 144.847656 433.902344 144.375 C 431.523438 143.898438 429.136719 143.480469 426.738281 143.125 C 424.339844 142.765625 421.933594 142.46875 419.519531 142.226562 C 417.109375 141.988281 414.691406 141.804688 412.269531 141.683594 C 409.847656 141.5625 407.421875 141.5 405 141.5 Z M 405 141.5 " fill-opacity="1" fill-rule="nonzero"/><path fill="#ffd068" d="M 26.21875 503.8125 L 783.78125 503.8125 L 783.78125 536.75 L 26.21875 536.75 Z M 26.21875 503.8125 " fill-opacity="1" fill-rule="nonzero"/><path fill="#ffd068" d="M 388.53125 569.6875 L 421.46875 569.6875 L 421.46875 602.625 L 388.53125 602.625 Z M 388.53125 569.6875 " fill-opacity="1" fill-rule="nonzero"/><path fill="#ffd068" d="M 783.78125 388.53125 L 668.5 388.53125 C 666.878906 388.53125 665.265625 388.449219 663.65625 388.292969 C 662.046875 388.132812 660.445312 387.894531 658.859375 387.582031 C 657.273438 387.265625 655.703125 386.871094 654.15625 386.402344 C 652.609375 385.933594 651.085938 385.386719 649.589844 384.769531 C 648.097656 384.148438 646.636719 383.457031 645.207031 382.695312 C 643.78125 381.933594 642.394531 381.101562 641.050781 380.203125 C 639.703125 379.304688 638.40625 378.339844 637.15625 377.316406 C 635.90625 376.289062 634.707031 375.203125 633.5625 374.058594 C 632.417969 372.914062 631.332031 371.71875 630.308594 370.464844 C 629.28125 369.214844 628.316406 367.917969 627.417969 366.570312 C 626.519531 365.226562 625.6875 363.839844 624.925781 362.414062 C 624.164062 360.984375 623.472656 359.523438 622.851562 358.03125 C 622.234375 356.535156 621.6875 355.015625 621.21875 353.464844 C 620.75 351.917969 620.355469 350.347656 620.042969 348.761719 C 619.726562 347.175781 619.488281 345.578125 619.328125 343.964844 C 619.171875 342.355469 619.09375 340.742188 619.09375 339.125 L 619.09375 273.25 C 619.09375 271.628906 619.171875 270.015625 619.328125 268.40625 C 619.488281 266.796875 619.726562 265.195312 620.042969 263.609375 C 620.355469 262.023438 620.75 260.453125 621.21875 258.90625 C 621.6875 257.359375 622.234375 255.835938 622.851562 254.339844 C 623.472656 252.847656 624.164062 251.386719 624.925781 249.957031 C 625.6875 248.53125 626.519531 247.144531 627.417969 245.800781 C 628.316406 244.453125 629.28125 243.15625 630.308594 241.90625 C 631.332031 240.65625 632.417969 239.457031 633.5625 238.3125 C 634.707031 237.167969 635.90625 236.082031 637.15625 235.058594 C 638.40625 234.03125 639.703125 233.066406 641.050781 232.167969 C 642.394531 231.269531 643.78125 230.4375 645.207031 229.675781 C 646.636719 228.914062 648.097656 228.222656 649.589844 227.601562 C 651.085938 226.984375 652.609375 226.4375 654.15625 225.96875 C 655.703125 225.5 657.273438 225.105469 658.859375 224.792969 C 660.445312 224.476562 662.046875 224.238281 663.65625 224.078125 C 665.265625 223.921875 666.878906 223.84375 668.5 223.84375 L 783.78125 223.84375 L 783.78125 256.78125 L 668.5 256.78125 C 667.960938 256.78125 667.421875 256.804688 666.882812 256.859375 C 666.347656 256.910156 665.816406 256.992188 665.285156 257.097656 C 664.757812 257.203125 664.234375 257.332031 663.71875 257.488281 C 663.203125 257.644531 662.695312 257.828125 662.195312 258.035156 C 661.699219 258.238281 661.210938 258.46875 660.734375 258.722656 C 660.257812 258.976562 659.796875 259.253906 659.347656 259.554688 C 658.902344 259.855469 658.46875 260.175781 658.050781 260.519531 C 657.632812 260.859375 657.234375 261.222656 656.851562 261.601562 C 656.472656 261.984375 656.109375 262.382812 655.769531 262.800781 C 655.425781 263.21875 655.105469 263.652344 654.804688 264.097656 C 654.503906 264.546875 654.226562 265.007812 653.972656 265.484375 C 653.71875 265.960938 653.488281 266.449219 653.285156 266.945312 C 653.078125 267.445312 652.894531 267.953125 652.738281 268.46875 C 652.582031 268.984375 652.453125 269.507812 652.347656 270.035156 C 652.242188 270.566406 652.160156 271.097656 652.109375 271.632812 C 652.054688 272.171875 652.03125 272.710938 652.03125 273.25 L 652.03125 339.125 C 652.03125 339.664062 652.054688 340.199219 652.109375 340.738281 C 652.160156 341.273438 652.242188 341.808594 652.347656 342.335938 C 652.453125 342.867188 652.582031 343.386719 652.738281 343.902344 C 652.894531 344.421875 653.078125 344.925781 653.28125 345.425781 C 653.488281 345.925781 653.71875 346.410156 653.972656 346.886719 C 654.226562 347.363281 654.503906 347.824219 654.804688 348.273438 C 655.105469 348.722656 655.425781 349.152344 655.769531 349.570312 C 656.109375 349.988281 656.472656 350.386719 656.851562 350.769531 C 657.234375 351.148438 657.632812 351.511719 658.050781 351.855469 C 658.46875 352.195312 658.898438 352.515625 659.347656 352.816406 C 659.796875 353.117188 660.257812 353.394531 660.734375 353.648438 C 661.210938 353.902344 661.699219 354.132812 662.195312 354.339844 C 662.695312 354.546875 663.203125 354.726562 663.71875 354.882812 C 664.234375 355.039062 664.757812 355.171875 665.285156 355.277344 C 665.8125 355.382812 666.347656 355.460938 666.882812 355.511719 C 667.421875 355.566406 667.960938 355.59375 668.5 355.59375 L 783.78125 355.59375 Z M 783.78125 388.53125 " fill-opacity="1" fill-rule="nonzero"/><path fill="#ffd068" d="M 635.5625 355.59375 L 569.6875 355.59375 C 569.148438 355.59375 568.609375 355.566406 568.070312 355.511719 C 567.535156 355.460938 567.003906 355.382812 566.472656 355.277344 C 565.945312 355.171875 565.421875 355.039062 564.90625 354.882812 C 564.390625 354.726562 563.882812 354.546875 563.382812 354.339844 C 562.886719 354.132812 562.398438 353.902344 561.921875 353.648438 C 561.445312 353.394531 560.984375 353.117188 560.535156 352.816406 C 560.085938 352.515625 559.65625 352.195312 559.238281 351.855469 C 558.820312 351.511719 558.421875 351.148438 558.039062 350.769531 C 557.660156 350.386719 557.296875 349.988281 556.957031 349.570312 C 556.613281 349.152344 556.292969 348.722656 555.992188 348.273438 C 555.691406 347.824219 555.414062 347.363281 555.160156 346.886719 C 554.90625 346.410156 554.675781 345.925781 554.46875 345.425781 C 554.265625 344.925781 554.082031 344.421875 553.925781 343.902344 C 553.769531 343.386719 553.640625 342.867188 553.535156 342.335938 C 553.429688 341.808594 553.347656 341.273438 553.296875 340.738281 C 553.242188 340.199219 553.21875 339.664062 553.21875 339.125 L 553.21875 273.25 C 553.21875 272.710938 553.242188 272.171875 553.296875 271.632812 C 553.347656 271.097656 553.429688 270.566406 553.535156 270.035156 C 553.640625 269.507812 553.769531 268.984375 553.925781 268.46875 C 554.082031 267.953125 554.265625 267.445312 554.46875 266.945312 C 554.675781 266.449219 554.90625 265.960938 555.160156 265.484375 C 555.414062 265.007812 555.691406 264.546875 555.992188 264.097656 C 556.292969 263.652344 556.613281 263.21875 556.957031 262.800781 C 557.296875 262.382812 557.660156 261.984375 558.039062 261.601562 C 558.421875 261.222656 558.820312 260.859375 559.238281 260.519531 C 559.65625 260.175781 560.085938 259.855469 560.535156 259.554688 C 560.984375 259.253906 561.445312 258.980469 561.921875 258.722656 C 562.398438 258.46875 562.886719 258.238281 563.382812 258.035156 C 563.882812 257.828125 564.390625 257.644531 564.90625 257.488281 C 565.421875 257.332031 565.945312 257.203125 566.472656 257.097656 C 567.003906 256.992188 567.535156 256.910156 568.070312 256.859375 C 568.609375 256.804688 569.148438 256.78125 569.6875 256.78125 L 635.5625 256.78125 C 636.101562 256.78125 636.636719 256.804688 637.175781 256.859375 C 637.710938 256.910156 638.246094 256.992188 638.773438 257.097656 C 639.304688 257.203125 639.824219 257.332031 640.339844 257.488281 C 640.859375 257.644531 641.363281 257.828125 641.863281 258.035156 C 642.363281 258.238281 642.847656 258.46875 643.324219 258.722656 C 643.800781 258.976562 644.261719 259.253906 644.710938 259.554688 C 645.160156 259.855469 645.589844 260.175781 646.007812 260.519531 C 646.425781 260.859375 646.824219 261.222656 647.207031 261.601562 C 647.585938 261.984375 647.949219 262.382812 648.292969 262.800781 C 648.632812 263.21875 648.953125 263.648438 649.253906 264.097656 C 649.554688 264.546875 649.832031 265.007812 650.085938 265.484375 C 650.339844 265.960938 650.570312 266.449219 650.777344 266.945312 C 650.980469 267.445312 651.164062 267.953125 651.320312 268.46875 C 651.476562 268.984375 651.609375 269.507812 651.714844 270.035156 C 651.816406 270.566406 651.898438 271.097656 651.949219 271.632812 C 652.003906 272.171875 652.03125 272.710938 652.03125 273.25 L 652.03125 339.125 C 652.03125 339.664062 652.003906 340.199219 651.949219 340.738281 C 651.898438 341.273438 651.816406 341.808594 651.714844 342.335938 C 651.609375 342.867188 651.476562 343.386719 651.320312 343.902344 C 651.164062 344.421875 650.980469 344.925781 650.777344 345.425781 C 650.570312 345.925781 650.339844 346.410156 650.085938 346.886719 C 649.832031 347.363281 649.554688 347.824219 649.253906 348.273438 C 648.953125 348.722656 648.632812 349.152344 648.292969 349.570312 C 647.949219 349.988281 647.585938 350.386719 647.207031 350.769531 C 646.824219 351.148438 646.425781 351.511719 646.007812 351.855469 C 645.589844 352.195312 645.160156 352.515625 644.710938 352.816406 C 644.261719 353.117188 643.800781 353.394531 643.324219 353.648438 C 642.847656 353.902344 642.363281 354.132812 641.863281 354.339844 C 641.363281 354.546875 640.859375 354.726562 640.339844 354.882812 C 639.824219 355.039062 639.304688 355.171875 638.773438 355.277344 C 638.246094 355.382812 637.710938 355.460938 637.175781 355.511719 C 636.636719 355.566406 636.101562 355.59375 635.5625 355.59375 Z M 586.15625 322.65625 L 619.09375 322.65625 L 619.09375 289.71875 L 586.15625 289.71875 Z M 586.15625 322.65625 " fill-opacity="1" fill-rule="nonzero"/><g clip-path="url(#6de4ce60cf)"><path fill="#ffd068" d="M 750.84375 668.5 L 59.15625 668.5 C 57.535156 668.5 55.921875 668.417969 54.3125 668.261719 C 52.703125 668.101562 51.101562 667.863281 49.515625 667.550781 C 47.929688 667.234375 46.359375 666.839844 44.8125 666.371094 C 43.265625 665.902344 41.742188 665.355469 40.246094 664.738281 C 38.753906 664.117188 37.292969 663.425781 35.863281 662.664062 C 34.4375 661.902344 33.050781 661.070312 31.707031 660.171875 C 30.359375 659.273438 29.0625 658.308594 27.8125 657.285156 C 26.5625 656.257812 25.363281 655.171875 24.21875 654.027344 C 23.074219 652.882812 21.988281 651.6875 20.964844 650.433594 C 19.9375 649.183594 18.972656 647.886719 18.074219 646.539062 C 17.175781 645.195312 16.34375 643.808594 15.582031 642.382812 C 14.820312 640.953125 14.128906 639.492188 13.507812 638 C 12.890625 636.503906 12.34375 634.980469 11.875 633.433594 C 11.40625 631.886719 11.011719 630.316406 10.699219 628.730469 C 10.382812 627.144531 10.144531 625.546875 9.984375 623.933594 C 9.828125 622.324219 9.75 620.710938 9.75 619.09375 L 9.75 92.09375 C 9.75 90.472656 9.828125 88.859375 9.984375 87.25 C 10.144531 85.640625 10.382812 84.039062 10.699219 82.453125 C 11.011719 80.867188 11.40625 79.296875 11.875 77.75 C 12.34375 76.203125 12.890625 74.679688 13.507812 73.183594 C 14.128906 71.691406 14.820312 70.230469 15.582031 68.800781 C 16.34375 67.375 17.175781 65.988281 18.074219 64.644531 C 18.972656 63.296875 19.9375 62 20.964844 60.75 C 21.988281 59.5 23.074219 58.300781 24.21875 57.15625 C 25.363281 56.011719 26.5625 54.925781 27.8125 53.902344 C 29.0625 52.875 30.359375 51.910156 31.707031 51.011719 C 33.050781 50.113281 34.4375 49.28125 35.863281 48.519531 C 37.292969 47.757812 38.753906 47.066406 40.246094 46.445312 C 41.742188 45.828125 43.265625 45.28125 44.8125 44.8125 C 46.359375 44.34375 47.929688 43.949219 49.515625 43.636719 C 51.101562 43.320312 52.703125 43.082031 54.3125 42.921875 C 55.921875 42.765625 57.535156 42.6875 59.15625 42.6875 L 750.84375 42.6875 C 752.460938 42.6875 754.074219 42.765625 755.683594 42.921875 C 757.296875 43.082031 758.894531 43.320312 760.480469 43.636719 C 762.066406 43.949219 763.636719 44.34375 765.183594 44.8125 C 766.730469 45.28125 768.253906 45.828125 769.75 46.445312 C 771.242188 47.066406 772.703125 47.757812 774.132812 48.519531 C 775.558594 49.28125 776.945312 50.113281 778.289062 51.011719 C 779.636719 51.910156 780.933594 52.875 782.183594 53.902344 C 783.4375 54.925781 784.632812 56.011719 785.777344 57.15625 C 786.921875 58.300781 788.007812 59.5 789.035156 60.75 C 790.058594 62 791.023438 63.296875 791.921875 64.644531 C 792.820312 65.988281 793.652344 67.375 794.414062 68.800781 C 795.175781 70.230469 795.867188 71.691406 796.488281 73.183594 C 797.105469 74.679688 797.652344 76.203125 798.121094 77.75 C 798.589844 79.296875 798.984375 80.867188 799.300781 82.453125 C 799.613281 84.039062 799.851562 85.640625 800.011719 87.25 C 800.167969 88.859375 800.25 90.472656 800.25 92.09375 L 800.25 619.09375 C 800.25 620.710938 800.167969 622.324219 800.011719 623.933594 C 799.851562 625.546875 799.613281 627.144531 799.300781 628.730469 C 798.984375 630.316406 798.589844 631.886719 798.121094 633.433594 C 797.652344 634.980469 797.105469 636.503906 796.488281 638 C 795.867188 639.492188 795.175781 640.953125 794.414062 642.382812 C 793.652344 643.808594 792.820312 645.195312 791.921875 646.539062 C 791.023438 647.886719 790.058594 649.183594 789.035156 650.433594 C 788.007812 651.6875 786.921875 652.882812 785.777344 654.027344 C 784.632812 655.171875 783.4375 656.257812 782.183594 657.285156 C 780.933594 658.308594 779.636719 659.273438 778.289062 660.171875 C 776.945312 661.070312 775.558594 661.902344 774.132812 662.664062 C 772.703125 663.425781 771.242188 664.117188 769.75 664.738281 C 768.253906 665.355469 766.730469 665.902344 765.183594 666.371094 C 763.636719 666.839844 762.066406 667.234375 760.480469 667.550781 C 758.894531 667.863281 757.296875 668.101562 755.683594 668.261719 C 754.074219 668.417969 752.460938 668.5 750.84375 668.5 Z M 59.15625 75.625 C 58.617188 75.625 58.078125 75.648438 57.539062 75.703125 C 57.003906 75.753906 56.472656 75.835938 55.941406 75.941406 C 55.414062 76.046875 54.890625 76.175781 54.375 76.332031 C 53.859375 76.488281 53.351562 76.671875 52.851562 76.878906 C 52.355469 77.082031 51.867188 77.3125 51.390625 77.566406 C 50.914062 77.820312 50.453125 78.097656 50.003906 78.398438 C 49.554688 78.699219 49.125 79.019531 48.707031 79.363281 C 48.289062 79.703125 47.890625 80.066406 47.507812 80.445312 C 47.128906 80.828125 46.765625 81.226562 46.425781 81.644531 C 46.082031 82.0625 45.761719 82.492188 45.460938 82.941406 C 45.160156 83.390625 44.882812 83.851562 44.628906 84.328125 C 44.375 84.804688 44.144531 85.292969 43.941406 85.789062 C 43.734375 86.289062 43.550781 86.796875 43.394531 87.3125 C 43.238281 87.828125 43.109375 88.351562 43.003906 88.878906 C 42.898438 89.410156 42.816406 89.941406 42.765625 90.476562 C 42.710938 91.015625 42.6875 91.554688 42.6875 92.09375 L 42.6875 619.09375 C 42.6875 619.632812 42.710938 620.167969 42.765625 620.707031 C 42.816406 621.242188 42.898438 621.777344 43.003906 622.304688 C 43.109375 622.835938 43.238281 623.355469 43.394531 623.871094 C 43.550781 624.390625 43.734375 624.894531 43.941406 625.394531 C 44.144531 625.894531 44.375 626.378906 44.628906 626.855469 C 44.882812 627.332031 45.160156 627.792969 45.460938 628.242188 C 45.761719 628.691406 46.082031 629.121094 46.425781 629.539062 C 46.765625 629.957031 47.128906 630.355469 47.507812 630.738281 C 47.890625 631.117188 48.289062 631.480469 48.707031 631.824219 C 49.125 632.164062 49.554688 632.484375 50.003906 632.785156 C 50.453125 633.085938 50.914062 633.363281 51.390625 633.617188 C 51.867188 633.871094 52.355469 634.101562 52.851562 634.308594 C 53.351562 634.511719 53.859375 634.695312 54.375 634.851562 C 54.890625 635.007812 55.414062 635.140625 55.941406 635.246094 C 56.472656 635.351562 57.003906 635.429688 57.539062 635.480469 C 58.078125 635.535156 58.617188 635.5625 59.15625 635.5625 L 750.84375 635.5625 C 751.382812 635.5625 751.917969 635.535156 752.457031 635.480469 C 752.992188 635.429688 753.527344 635.351562 754.054688 635.246094 C 754.582031 635.140625 755.105469 635.007812 755.621094 634.851562 C 756.140625 634.695312 756.644531 634.511719 757.144531 634.308594 C 757.644531 634.101562 758.128906 633.871094 758.605469 633.617188 C 759.082031 633.363281 759.542969 633.085938 759.992188 632.785156 C 760.441406 632.484375 760.871094 632.164062 761.289062 631.824219 C 761.707031 631.480469 762.105469 631.117188 762.488281 630.738281 C 762.867188 630.355469 763.230469 629.957031 763.574219 629.539062 C 763.914062 629.121094 764.234375 628.691406 764.535156 628.242188 C 764.835938 627.792969 765.113281 627.332031 765.367188 626.855469 C 765.621094 626.378906 765.851562 625.894531 766.058594 625.394531 C 766.261719 624.894531 766.445312 624.390625 766.601562 623.871094 C 766.757812 623.355469 766.890625 622.835938 766.996094 622.304688 C 767.097656 621.777344 767.179688 621.242188 767.230469 620.707031 C 767.285156 620.167969 767.3125 619.632812 767.3125 619.09375 L 767.3125 92.09375 C 767.3125 91.554688 767.285156 91.015625 767.230469 90.476562 C 767.179688 89.941406 767.097656 89.410156 766.996094 88.878906 C 766.890625 88.351562 766.757812 87.828125 766.601562 87.3125 C 766.445312 86.796875 766.261719 86.289062 766.058594 85.789062 C 765.851562 85.292969 765.621094 84.804688 765.367188 84.328125 C 765.113281 83.851562 764.835938 83.390625 764.535156 82.941406 C 764.234375 82.492188 763.914062 82.0625 763.574219 81.644531 C 763.230469 81.226562 762.867188 80.828125 762.488281 80.445312 C 762.105469 80.066406 761.707031 79.703125 761.289062 79.363281 C 760.871094 79.019531 760.441406 78.699219 759.992188 78.398438 C 759.542969 78.097656 759.082031 77.820312 758.605469 77.566406 C 758.128906 77.3125 757.644531 77.082031 757.144531 76.878906 C 756.644531 76.671875 756.140625 76.488281 755.621094 76.332031 C 755.105469 76.175781 754.582031 76.046875 754.054688 75.941406 C 753.527344 75.835938 752.992188 75.753906 752.457031 75.703125 C 751.917969 75.648438 751.382812 75.625 750.84375 75.625 Z M 59.15625 75.625 " fill-opacity="1" fill-rule="nonzero"/></g><path fill="#ffd068" d="M 103.734375 531.921875 L 80.449219 508.636719 L 157.96875 431.117188 L 157.96875 339.125 C 157.96875 338.585938 157.992188 338.046875 158.046875 337.507812 C 158.097656 336.972656 158.179688 336.441406 158.285156 335.910156 C 158.390625 335.382812 158.519531 334.859375 158.675781 334.34375 C 158.832031 333.828125 159.015625 333.320312 159.222656 332.820312 C 159.425781 332.324219 159.65625 331.835938 159.910156 331.359375 C 160.164062 330.882812 160.441406 330.421875 160.742188 329.972656 C 161.042969 329.523438 161.363281 329.09375 161.707031 328.675781 C 162.046875 328.257812 162.410156 327.859375 162.789062 327.476562 C 163.171875 327.097656 163.570312 326.734375 163.988281 326.394531 C 164.40625 326.050781 164.835938 325.730469 165.285156 325.429688 C 165.734375 325.128906 166.195312 324.851562 166.671875 324.597656 C 167.148438 324.34375 167.636719 324.113281 168.132812 323.910156 C 168.632812 323.703125 169.140625 323.519531 169.65625 323.363281 C 170.171875 323.207031 170.695312 323.078125 171.222656 322.972656 C 171.753906 322.867188 172.285156 322.785156 172.820312 322.734375 C 173.359375 322.679688 173.898438 322.65625 174.4375 322.65625 L 240.3125 322.65625 L 240.3125 355.59375 L 190.90625 355.59375 L 190.90625 437.9375 C 190.902344 440.121094 190.484375 442.21875 189.648438 444.238281 C 188.8125 446.253906 187.625 448.035156 186.078125 449.578125 Z M 103.734375 531.921875 " fill-opacity="1" fill-rule="nonzero"/><path fill="#ffd068" d="M 602.625 223.84375 L 553.21875 223.84375 L 553.21875 190.90625 L 595.804688 190.90625 L 673.324219 113.386719 C 674.867188 111.84375 676.648438 110.652344 678.664062 109.816406 C 680.683594 108.980469 682.785156 108.5625 684.96875 108.5625 L 783.78125 108.5625 L 783.78125 141.5 L 691.785156 141.5 L 614.265625 219.015625 C 612.722656 220.5625 610.941406 221.75 608.925781 222.585938 C 606.90625 223.421875 604.808594 223.839844 602.625 223.84375 Z M 602.625 223.84375 " fill-opacity="1" fill-rule="nonzero"/><path fill="#ffd068" d="M 75.625 108.5625 L 207.375 108.5625 L 207.375 141.5 L 75.625 141.5 Z M 75.625 108.5625 " fill-opacity="1" fill-rule="nonzero"/><path fill="#ffd068" d="M 75.625 174.4375 L 141.5 174.4375 L 141.5 207.375 L 75.625 207.375 Z M 75.625 174.4375 " fill-opacity="1" fill-rule="nonzero"/><path fill="#ffd068" d="M 75.625 240.3125 L 174.4375 240.3125 L 174.4375 273.25 L 75.625 273.25 Z M 75.625 240.3125 " fill-opacity="1" fill-rule="nonzero"/><path fill="#ffd068" d="M 405 306.1875 C 402.15625 306.1875 399.492188 305.496094 397.011719 304.109375 L 248.792969 221.765625 L 264.765625 192.980469 L 402.132812 269.28125 L 508.636719 162.792969 L 531.921875 186.078125 L 416.640625 301.359375 C 415.097656 302.90625 413.316406 304.09375 411.300781 304.929688 C 409.28125 305.765625 407.183594 306.183594 405 306.1875 Z M 405 306.1875 " fill-opacity="1" fill-rule="nonzero"/><path fill="#ffd068" d="M 388.53125 289.71875 L 421.46875 289.71875 L 421.46875 454.40625 L 388.53125 454.40625 Z M 388.53125 289.71875 " fill-opacity="1" fill-rule="nonzero"/></svg>