<svg xmlns="http://www.w3.org/2000/svg" xmlns:xlink="http://www.w3.org/1999/xlink" width="1080" zoomAndPan="magnify" viewBox="0 0 810 809.999993" height="1080" preserveAspectRatio="xMidYMid meet" version="1.0"><defs><clipPath id="6dbcaa4439"><path d="M 60.882812 81 L 729 81 L 729 749.25 L 60.882812 749.25 Z M 60.882812 81 " clip-rule="nonzero"/></clipPath></defs><g clip-path="url(#6dbcaa4439)"><path fill="#ffd068" d="M 717.855469 81 L 72.019531 81 C 65.335938 81 60.882812 85.453125 60.882812 92.136719 L 60.882812 604.351562 C 60.882812 611.035156 65.335938 615.488281 72.019531 615.488281 L 316.992188 615.488281 L 316.992188 726.839844 L 283.585938 726.839844 L 283.585938 749.109375 L 506.289062 749.109375 L 506.289062 726.839844 L 472.882812 726.839844 L 472.882812 615.488281 L 717.855469 615.488281 C 724.539062 615.488281 728.992188 611.035156 728.992188 604.351562 L 728.992188 92.136719 C 728.992188 85.453125 724.539062 81 717.855469 81 Z M 450.613281 726.839844 L 339.261719 726.839844 L 339.261719 615.488281 L 450.613281 615.488281 Z M 706.722656 593.21875 L 83.152344 593.21875 L 83.152344 504.136719 L 706.722656 504.136719 Z M 437.25 262.503906 L 404.960938 177.875 C 403.847656 174.535156 399.390625 171.195312 394.9375 171.195312 C 390.484375 171.195312 386.03125 173.421875 384.914062 177.875 L 352.625 262.503906 C 351.511719 264.730469 350.398438 266.957031 350.398438 270.296875 L 350.398438 481.867188 L 127.695312 481.867188 L 127.695312 147.8125 L 662.179688 147.8125 L 662.179688 481.867188 L 439.476562 481.867188 L 439.476562 270.296875 C 439.476562 266.957031 438.363281 264.730469 437.25 262.503906 Z M 377.121094 259.164062 L 393.824219 212.394531 L 411.640625 259.164062 Z M 383.800781 281.433594 L 383.800781 481.867188 L 372.667969 481.867188 L 372.667969 281.433594 Z M 406.074219 281.433594 L 417.207031 281.433594 L 417.207031 481.867188 L 406.074219 481.867188 Z M 706.722656 481.867188 L 684.453125 481.867188 L 684.453125 136.675781 C 684.453125 129.996094 679.996094 125.539062 673.316406 125.539062 L 116.558594 125.539062 C 109.878906 125.539062 105.421875 129.996094 105.421875 136.675781 L 105.421875 481.867188 L 83.152344 481.867188 L 83.152344 103.269531 L 706.722656 103.269531 Z M 706.722656 481.867188 " fill-opacity="1" fill-rule="nonzero"/></g><path fill="#ffd068" d="M 628.777344 359.378906 L 628.777344 270.296875 C 628.777344 263.617188 624.320312 259.164062 617.640625 259.164062 L 484.019531 259.164062 L 484.019531 314.839844 L 506.289062 314.839844 L 506.289062 281.433594 L 550.828125 281.433594 L 550.828125 314.839844 L 573.101562 314.839844 L 573.101562 281.433594 L 606.503906 281.433594 L 606.503906 348.242188 L 484.019531 348.242188 L 484.019531 370.515625 L 617.640625 370.515625 C 624.320312 370.515625 628.777344 366.058594 628.777344 359.378906 Z M 628.777344 359.378906 " fill-opacity="1" fill-rule="nonzero"/><path fill="#ffd068" d="M 161.097656 270.296875 L 161.097656 359.378906 C 161.097656 366.058594 165.554688 370.515625 172.234375 370.515625 L 305.855469 370.515625 L 305.855469 348.242188 L 183.371094 348.242188 L 183.371094 281.433594 L 216.773438 281.433594 L 216.773438 314.839844 L 239.046875 314.839844 L 239.046875 281.433594 L 283.585938 281.433594 L 283.585938 314.839844 L 305.855469 314.839844 L 305.855469 259.164062 L 172.234375 259.164062 C 165.554688 259.164062 161.097656 263.617188 161.097656 270.296875 Z M 161.097656 270.296875 " fill-opacity="1" fill-rule="nonzero"/><path fill="#ffd068" d="M 194.503906 392.785156 L 216.773438 392.785156 L 216.773438 415.054688 L 194.503906 415.054688 Z M 194.503906 392.785156 " fill-opacity="1" fill-rule="nonzero"/><path fill="#ffd068" d="M 239.046875 392.785156 L 261.316406 392.785156 L 261.316406 415.054688 L 239.046875 415.054688 Z M 239.046875 392.785156 " fill-opacity="1" fill-rule="nonzero"/><path fill="#ffd068" d="M 283.585938 392.785156 L 305.855469 392.785156 L 305.855469 415.054688 L 283.585938 415.054688 Z M 283.585938 392.785156 " fill-opacity="1" fill-rule="nonzero"/><path fill="#ffd068" d="M 484.019531 392.785156 L 506.289062 392.785156 L 506.289062 415.054688 L 484.019531 415.054688 Z M 484.019531 392.785156 " fill-opacity="1" fill-rule="nonzero"/><path fill="#ffd068" d="M 528.558594 392.785156 L 550.828125 392.785156 L 550.828125 415.054688 L 528.558594 415.054688 Z M 528.558594 392.785156 " fill-opacity="1" fill-rule="nonzero"/><path fill="#ffd068" d="M 573.101562 392.785156 L 595.371094 392.785156 L 595.371094 415.054688 L 573.101562 415.054688 Z M 573.101562 392.785156 " fill-opacity="1" fill-rule="nonzero"/><path fill="#ffd068" d="M 484.019531 214.621094 L 506.289062 214.621094 L 506.289062 236.890625 L 484.019531 236.890625 Z M 484.019531 214.621094 " fill-opacity="1" fill-rule="nonzero"/><path fill="#ffd068" d="M 528.558594 214.621094 L 550.828125 214.621094 L 550.828125 236.890625 L 528.558594 236.890625 Z M 528.558594 214.621094 " fill-opacity="1" fill-rule="nonzero"/><path fill="#ffd068" d="M 573.101562 214.621094 L 595.371094 214.621094 L 595.371094 236.890625 L 573.101562 236.890625 Z M 573.101562 214.621094 " fill-opacity="1" fill-rule="nonzero"/><path fill="#ffd068" d="M 194.503906 214.621094 L 216.773438 214.621094 L 216.773438 236.890625 L 194.503906 236.890625 Z M 194.503906 214.621094 " fill-opacity="1" fill-rule="nonzero"/><path fill="#ffd068" d="M 239.046875 214.621094 L 261.316406 214.621094 L 261.316406 236.890625 L 239.046875 236.890625 Z M 239.046875 214.621094 " fill-opacity="1" fill-rule="nonzero"/><path fill="#ffd068" d="M 283.585938 214.621094 L 305.855469 214.621094 L 305.855469 236.890625 L 283.585938 236.890625 Z M 283.585938 214.621094 " fill-opacity="1" fill-rule="nonzero"/></svg>