<svg xmlns="http://www.w3.org/2000/svg" xmlns:xlink="http://www.w3.org/1999/xlink" width="1080" zoomAndPan="magnify" viewBox="0 0 810 809.999993" height="1080" preserveAspectRatio="xMidYMid meet" version="1.0"><defs><clipPath id="cc5d6d39c5"><path d="M 9.039062 9.039062 L 801 9.039062 L 801 801 L 9.039062 801 Z M 9.039062 9.039062 " clip-rule="nonzero"/></clipPath></defs><g clip-path="url(#cc5d6d39c5)"><path fill="#ffd068" d="M 751.460938 800.957031 L 58.535156 800.957031 C 56.914062 800.957031 55.296875 800.878906 53.683594 800.71875 C 52.070312 800.558594 50.46875 800.324219 48.878906 800.007812 C 47.289062 799.691406 45.71875 799.296875 44.167969 798.824219 C 42.617188 798.355469 41.089844 797.808594 39.59375 797.191406 C 38.097656 796.570312 36.632812 795.878906 35.203125 795.113281 C 33.773438 794.347656 32.382812 793.515625 31.035156 792.617188 C 29.6875 791.714844 28.386719 790.75 27.136719 789.722656 C 25.882812 788.695312 24.683594 787.605469 23.535156 786.460938 C 22.390625 785.3125 21.300781 784.113281 20.273438 782.863281 C 19.246094 781.609375 18.28125 780.308594 17.378906 778.960938 C 16.480469 777.613281 15.648438 776.222656 14.882812 774.792969 C 14.121094 773.363281 13.425781 771.902344 12.808594 770.402344 C 12.1875 768.90625 11.640625 767.382812 11.171875 765.828125 C 10.699219 764.277344 10.308594 762.707031 9.992188 761.117188 C 9.675781 759.527344 9.4375 757.925781 9.277344 756.3125 C 9.117188 754.699219 9.039062 753.082031 9.039062 751.460938 L 9.039062 58.535156 C 9.039062 56.914062 9.117188 55.296875 9.277344 53.683594 C 9.4375 52.070312 9.675781 50.46875 9.992188 48.878906 C 10.308594 47.289062 10.699219 45.71875 11.171875 44.167969 C 11.640625 42.617188 12.1875 41.089844 12.808594 39.59375 C 13.425781 38.097656 14.121094 36.632812 14.882812 35.203125 C 15.648438 33.773438 16.480469 32.382812 17.378906 31.035156 C 18.28125 29.6875 19.246094 28.386719 20.273438 27.136719 C 21.300781 25.882812 22.390625 24.683594 23.535156 23.535156 C 24.683594 22.390625 25.882812 21.300781 27.136719 20.273438 C 28.386719 19.246094 29.6875 18.28125 31.035156 17.378906 C 32.382812 16.480469 33.773438 15.648438 35.203125 14.882812 C 36.632812 14.121094 38.097656 13.425781 39.59375 12.808594 C 41.089844 12.1875 42.617188 11.640625 44.167969 11.171875 C 45.71875 10.699219 47.289062 10.308594 48.878906 9.992188 C 50.46875 9.675781 52.070312 9.4375 53.683594 9.277344 C 55.296875 9.117188 56.914062 9.039062 58.535156 9.039062 L 751.460938 9.039062 C 753.082031 9.039062 754.699219 9.117188 756.3125 9.277344 C 757.925781 9.4375 759.527344 9.675781 761.117188 9.992188 C 762.707031 10.308594 764.277344 10.699219 765.828125 11.171875 C 767.382812 11.640625 768.90625 12.1875 770.402344 12.808594 C 771.902344 13.425781 773.363281 14.121094 774.792969 14.882812 C 776.222656 15.648438 777.613281 16.480469 778.960938 17.378906 C 780.308594 18.28125 781.609375 19.246094 782.863281 20.273438 C 784.113281 21.300781 785.3125 22.390625 786.460938 23.535156 C 787.605469 24.683594 788.695312 25.882812 789.722656 27.136719 C 790.75 28.386719 791.714844 29.6875 792.617188 31.035156 C 793.515625 32.382812 794.347656 33.773438 795.113281 35.203125 C 795.878906 36.632812 796.570312 38.097656 797.191406 39.59375 C 797.808594 41.089844 798.355469 42.617188 798.824219 44.167969 C 799.296875 45.71875 799.691406 47.289062 800.007812 48.878906 C 800.324219 50.46875 800.558594 52.070312 800.71875 53.683594 C 800.878906 55.296875 800.957031 56.914062 800.957031 58.535156 L 800.957031 751.460938 C 800.957031 753.082031 800.878906 754.699219 800.71875 756.3125 C 800.558594 757.925781 800.324219 759.527344 800.007812 761.117188 C 799.691406 762.707031 799.296875 764.277344 798.824219 765.828125 C 798.355469 767.382812 797.808594 768.90625 797.191406 770.402344 C 796.570312 771.902344 795.878906 773.363281 795.113281 774.792969 C 794.347656 776.222656 793.515625 777.613281 792.617188 778.960938 C 791.714844 780.308594 790.75 781.609375 789.722656 782.863281 C 788.695312 784.113281 787.605469 785.3125 786.460938 786.460938 C 785.3125 787.605469 784.113281 788.695312 782.863281 789.722656 C 781.609375 790.75 780.308594 791.714844 778.960938 792.617188 C 777.613281 793.515625 776.222656 794.347656 774.792969 795.113281 C 773.363281 795.878906 771.902344 796.570312 770.402344 797.191406 C 768.90625 797.808594 767.382812 798.355469 765.828125 798.824219 C 764.277344 799.296875 762.707031 799.691406 761.117188 800.007812 C 759.527344 800.324219 757.925781 800.558594 756.3125 800.71875 C 754.699219 800.878906 753.082031 800.957031 751.460938 800.957031 Z M 58.535156 42.035156 C 57.992188 42.035156 57.453125 42.0625 56.917969 42.117188 C 56.378906 42.167969 55.84375 42.246094 55.316406 42.351562 C 54.785156 42.457031 54.261719 42.589844 53.746094 42.746094 C 53.226562 42.902344 52.71875 43.085938 52.21875 43.292969 C 51.722656 43.5 51.234375 43.730469 50.757812 43.984375 C 50.28125 44.238281 49.816406 44.515625 49.367188 44.816406 C 48.917969 45.117188 48.484375 45.4375 48.066406 45.78125 C 47.648438 46.125 47.25 46.484375 46.867188 46.867188 C 46.484375 47.25 46.125 47.648438 45.78125 48.066406 C 45.4375 48.484375 45.117188 48.917969 44.816406 49.367188 C 44.515625 49.816406 44.238281 50.28125 43.984375 50.757812 C 43.730469 51.234375 43.5 51.722656 43.292969 52.21875 C 43.085938 52.71875 42.902344 53.226562 42.746094 53.746094 C 42.589844 54.261719 42.457031 54.785156 42.351562 55.316406 C 42.246094 55.84375 42.167969 56.378906 42.117188 56.917969 C 42.0625 57.453125 42.035156 57.992188 42.035156 58.535156 L 42.035156 751.460938 C 42.035156 752.003906 42.0625 752.542969 42.117188 753.078125 C 42.167969 753.617188 42.246094 754.152344 42.351562 754.679688 C 42.457031 755.210938 42.589844 755.734375 42.746094 756.25 C 42.902344 756.769531 43.085938 757.277344 43.292969 757.777344 C 43.5 758.273438 43.730469 758.761719 43.984375 759.238281 C 44.238281 759.714844 44.515625 760.179688 44.816406 760.628906 C 45.117188 761.078125 45.4375 761.511719 45.78125 761.929688 C 46.125 762.347656 46.484375 762.746094 46.867188 763.128906 C 47.25 763.511719 47.648438 763.871094 48.066406 764.214844 C 48.484375 764.558594 48.917969 764.878906 49.367188 765.179688 C 49.816406 765.480469 50.28125 765.757812 50.757812 766.011719 C 51.234375 766.265625 51.722656 766.5 52.21875 766.703125 C 52.71875 766.910156 53.226562 767.09375 53.746094 767.25 C 54.261719 767.40625 54.785156 767.539062 55.316406 767.644531 C 55.84375 767.75 56.378906 767.828125 56.917969 767.882812 C 57.453125 767.933594 57.992188 767.960938 58.535156 767.960938 L 751.460938 767.960938 C 752.003906 767.960938 752.542969 767.933594 753.078125 767.882812 C 753.617188 767.828125 754.152344 767.75 754.679688 767.644531 C 755.210938 767.539062 755.734375 767.40625 756.25 767.25 C 756.769531 767.09375 757.277344 766.910156 757.777344 766.703125 C 758.273438 766.5 758.761719 766.265625 759.238281 766.011719 C 759.714844 765.757812 760.179688 765.480469 760.628906 765.179688 C 761.078125 764.878906 761.511719 764.558594 761.929688 764.214844 C 762.347656 763.871094 762.746094 763.511719 763.128906 763.128906 C 763.511719 762.746094 763.871094 762.347656 764.214844 761.929688 C 764.558594 761.511719 764.878906 761.078125 765.179688 760.628906 C 765.480469 760.179688 765.757812 759.714844 766.011719 759.238281 C 766.265625 758.761719 766.496094 758.273438 766.703125 757.777344 C 766.910156 757.277344 767.09375 756.769531 767.25 756.25 C 767.40625 755.734375 767.539062 755.210938 767.644531 754.679688 C 767.75 754.152344 767.828125 753.617188 767.882812 753.078125 C 767.933594 752.542969 767.960938 752.003906 767.960938 751.460938 L 767.960938 58.535156 C 767.960938 57.992188 767.933594 57.453125 767.882812 56.917969 C 767.828125 56.378906 767.75 55.84375 767.644531 55.316406 C 767.539062 54.785156 767.40625 54.261719 767.25 53.746094 C 767.09375 53.226562 766.910156 52.71875 766.703125 52.21875 C 766.496094 51.722656 766.265625 51.234375 766.011719 50.757812 C 765.757812 50.28125 765.480469 49.816406 765.179688 49.367188 C 764.878906 48.917969 764.558594 48.484375 764.214844 48.066406 C 763.871094 47.648438 763.511719 47.25 763.128906 46.867188 C 762.746094 46.484375 762.347656 46.125 761.929688 45.78125 C 761.511719 45.4375 761.078125 45.117188 760.628906 44.816406 C 760.179688 44.515625 759.714844 44.238281 759.238281 43.984375 C 758.761719 43.730469 758.273438 43.5 757.777344 43.292969 C 757.277344 43.085938 756.769531 42.902344 756.25 42.746094 C 755.734375 42.589844 755.210938 42.457031 754.679688 42.351562 C 754.152344 42.246094 753.617188 42.167969 753.078125 42.117188 C 752.542969 42.0625 752.003906 42.035156 751.460938 42.035156 Z M 58.535156 42.035156 " fill-opacity="1" fill-rule="nonzero"/></g><path fill="#ffd068" d="M 784.457031 207.019531 L 223.515625 207.019531 C 221.328125 207.019531 219.226562 206.597656 217.203125 205.761719 C 215.183594 204.925781 213.398438 203.730469 211.851562 202.183594 L 167.191406 157.523438 L 81.863281 157.523438 L 37.203125 202.183594 L 13.875 178.855469 L 63.367188 129.363281 C 64.914062 127.8125 66.699219 126.621094 68.71875 125.785156 C 70.742188 124.945312 72.84375 124.527344 75.03125 124.527344 L 174.023438 124.527344 C 176.210938 124.527344 178.3125 124.945312 180.335938 125.785156 C 182.355469 126.621094 184.140625 127.8125 185.6875 129.363281 L 230.347656 174.023438 L 784.457031 174.023438 Z M 784.457031 207.019531 " fill-opacity="1" fill-rule="nonzero"/><path fill="#ffd068" d="M 306.007812 602.976562 L 240.015625 602.976562 C 239.476562 602.976562 238.9375 602.953125 238.398438 602.898438 C 237.859375 602.84375 237.328125 602.765625 236.796875 602.660156 C 236.265625 602.554688 235.742188 602.425781 235.226562 602.265625 C 234.710938 602.109375 234.199219 601.929688 233.703125 601.722656 C 233.203125 601.515625 232.714844 601.285156 232.238281 601.03125 C 231.761719 600.773438 231.296875 600.496094 230.847656 600.199219 C 230.398438 599.898438 229.964844 599.574219 229.550781 599.234375 C 229.132812 598.890625 228.730469 598.527344 228.347656 598.144531 C 227.96875 597.761719 227.605469 597.363281 227.261719 596.945312 C 226.917969 596.527344 226.597656 596.09375 226.296875 595.644531 C 225.996094 595.195312 225.71875 594.734375 225.464844 594.257812 C 225.210938 593.78125 224.980469 593.292969 224.773438 592.792969 C 224.566406 592.292969 224.382812 591.785156 224.226562 591.269531 C 224.070312 590.75 223.941406 590.226562 223.835938 589.699219 C 223.730469 589.167969 223.648438 588.632812 223.597656 588.097656 C 223.542969 587.558594 223.515625 587.019531 223.515625 586.480469 L 223.515625 487.488281 C 223.515625 486.949219 223.542969 486.410156 223.597656 485.871094 C 223.648438 485.335938 223.730469 484.800781 223.835938 484.269531 C 223.941406 483.742188 224.070312 483.21875 224.226562 482.699219 C 224.382812 482.183594 224.566406 481.675781 224.773438 481.175781 C 224.980469 480.675781 225.210938 480.1875 225.464844 479.710938 C 225.71875 479.234375 225.996094 478.773438 226.296875 478.324219 C 226.597656 477.875 226.917969 477.441406 227.261719 477.023438 C 227.605469 476.605469 227.96875 476.207031 228.347656 475.824219 C 228.730469 475.441406 229.132812 475.078125 229.550781 474.738281 C 229.964844 474.394531 230.398438 474.070312 230.847656 473.773438 C 231.296875 473.472656 231.761719 473.195312 232.238281 472.941406 C 232.714844 472.683594 233.203125 472.453125 233.703125 472.246094 C 234.199219 472.039062 234.710938 471.859375 235.226562 471.703125 C 235.742188 471.546875 236.265625 471.414062 236.796875 471.308594 C 237.328125 471.203125 237.859375 471.125 238.398438 471.070312 C 238.9375 471.019531 239.476562 470.992188 240.015625 470.992188 L 306.007812 470.992188 C 306.550781 470.992188 307.089844 471.019531 307.625 471.070312 C 308.164062 471.125 308.699219 471.203125 309.226562 471.308594 C 309.757812 471.414062 310.28125 471.546875 310.796875 471.703125 C 311.316406 471.859375 311.824219 472.039062 312.320312 472.246094 C 312.820312 472.453125 313.308594 472.683594 313.785156 472.941406 C 314.261719 473.195312 314.726562 473.472656 315.175781 473.773438 C 315.625 474.070312 316.058594 474.394531 316.476562 474.738281 C 316.894531 475.078125 317.292969 475.441406 317.675781 475.824219 C 318.058594 476.207031 318.417969 476.605469 318.761719 477.023438 C 319.105469 477.441406 319.425781 477.875 319.726562 478.324219 C 320.027344 478.773438 320.304688 479.234375 320.558594 479.710938 C 320.8125 480.1875 321.042969 480.675781 321.25 481.175781 C 321.457031 481.675781 321.640625 482.183594 321.796875 482.699219 C 321.953125 483.21875 322.085938 483.742188 322.191406 484.269531 C 322.296875 484.800781 322.375 485.335938 322.425781 485.871094 C 322.480469 486.410156 322.507812 486.949219 322.507812 487.488281 L 322.507812 586.480469 C 322.507812 587.019531 322.480469 587.558594 322.425781 588.097656 C 322.375 588.632812 322.296875 589.167969 322.191406 589.699219 C 322.085938 590.226562 321.953125 590.75 321.796875 591.269531 C 321.640625 591.785156 321.457031 592.292969 321.25 592.792969 C 321.042969 593.292969 320.8125 593.78125 320.558594 594.257812 C 320.304688 594.734375 320.027344 595.195312 319.726562 595.644531 C 319.425781 596.09375 319.105469 596.527344 318.761719 596.945312 C 318.417969 597.363281 318.058594 597.761719 317.675781 598.144531 C 317.292969 598.527344 316.894531 598.890625 316.476562 599.234375 C 316.058594 599.574219 315.625 599.898438 315.175781 600.199219 C 314.726562 600.496094 314.261719 600.773438 313.785156 601.03125 C 313.308594 601.285156 312.820312 601.515625 312.320312 601.722656 C 311.824219 601.929688 311.316406 602.109375 310.796875 602.265625 C 310.28125 602.425781 309.757812 602.554688 309.226562 602.660156 C 308.699219 602.765625 308.164062 602.84375 307.625 602.898438 C 307.089844 602.953125 306.550781 602.976562 306.007812 602.976562 Z M 256.515625 569.980469 L 289.511719 569.980469 L 289.511719 503.988281 L 256.515625 503.988281 Z M 256.515625 569.980469 " fill-opacity="1" fill-rule="nonzero"/><path fill="#ffd068" d="M 339.003906 503.988281 L 207.019531 503.988281 C 206.480469 503.988281 205.941406 503.960938 205.402344 503.910156 C 204.863281 503.855469 204.332031 503.777344 203.800781 503.671875 C 203.269531 503.566406 202.746094 503.433594 202.230469 503.277344 C 201.710938 503.121094 201.203125 502.9375 200.707031 502.730469 C 200.207031 502.527344 199.71875 502.292969 199.242188 502.039062 C 198.765625 501.785156 198.300781 501.507812 197.851562 501.207031 C 197.402344 500.90625 196.96875 500.585938 196.550781 500.242188 C 196.132812 499.898438 195.734375 499.539062 195.351562 499.15625 C 194.972656 498.773438 194.609375 498.375 194.265625 497.957031 C 193.921875 497.539062 193.601562 497.105469 193.300781 496.65625 C 193 496.207031 192.722656 495.742188 192.46875 495.265625 C 192.214844 494.789062 191.984375 494.300781 191.777344 493.804688 C 191.570312 493.304688 191.386719 492.796875 191.230469 492.277344 C 191.074219 491.761719 190.941406 491.238281 190.835938 490.707031 C 190.730469 490.179688 190.652344 489.644531 190.601562 489.105469 C 190.546875 488.570312 190.519531 488.03125 190.519531 487.488281 L 190.519531 355.503906 C 190.519531 354.964844 190.546875 354.425781 190.601562 353.886719 C 190.652344 353.347656 190.730469 352.816406 190.835938 352.285156 C 190.941406 351.753906 191.074219 351.230469 191.230469 350.714844 C 191.386719 350.195312 191.570312 349.6875 191.777344 349.191406 C 191.984375 348.691406 192.214844 348.203125 192.46875 347.726562 C 192.722656 347.25 193 346.785156 193.300781 346.335938 C 193.601562 345.886719 193.921875 345.453125 194.265625 345.035156 C 194.609375 344.621094 194.972656 344.21875 195.351562 343.835938 C 195.734375 343.457031 196.132812 343.09375 196.550781 342.75 C 196.96875 342.40625 197.402344 342.085938 197.851562 341.785156 C 198.300781 341.484375 198.765625 341.207031 199.242188 340.953125 C 199.71875 340.699219 200.207031 340.46875 200.707031 340.261719 C 201.203125 340.054688 201.710938 339.871094 202.230469 339.714844 C 202.746094 339.558594 203.269531 339.425781 203.800781 339.320312 C 204.332031 339.21875 204.863281 339.136719 205.402344 339.085938 C 205.941406 339.03125 206.480469 339.003906 207.019531 339.003906 L 339.003906 339.003906 C 339.546875 339.003906 340.085938 339.03125 340.621094 339.085938 C 341.160156 339.136719 341.695312 339.21875 342.222656 339.320312 C 342.753906 339.425781 343.277344 339.558594 343.792969 339.714844 C 344.3125 339.871094 344.820312 340.054688 345.320312 340.261719 C 345.816406 340.46875 346.304688 340.699219 346.78125 340.953125 C 347.257812 341.207031 347.722656 341.484375 348.171875 341.785156 C 348.621094 342.085938 349.054688 342.40625 349.472656 342.75 C 349.890625 343.09375 350.289062 343.457031 350.671875 343.835938 C 351.054688 344.21875 351.414062 344.621094 351.757812 345.035156 C 352.101562 345.453125 352.421875 345.886719 352.722656 346.335938 C 353.023438 346.785156 353.300781 347.25 353.554688 347.726562 C 353.808594 348.203125 354.039062 348.691406 354.246094 349.191406 C 354.453125 349.6875 354.636719 350.195312 354.792969 350.714844 C 354.949219 351.230469 355.082031 351.753906 355.1875 352.285156 C 355.292969 352.816406 355.371094 353.347656 355.425781 353.886719 C 355.476562 354.425781 355.503906 354.964844 355.503906 355.503906 L 355.503906 487.488281 C 355.503906 488.03125 355.476562 488.570312 355.425781 489.105469 C 355.371094 489.644531 355.292969 490.179688 355.1875 490.707031 C 355.082031 491.238281 354.949219 491.761719 354.792969 492.277344 C 354.636719 492.796875 354.453125 493.304688 354.246094 493.804688 C 354.039062 494.300781 353.808594 494.789062 353.554688 495.265625 C 353.300781 495.742188 353.023438 496.207031 352.722656 496.65625 C 352.421875 497.105469 352.101562 497.539062 351.757812 497.957031 C 351.414062 498.375 351.054688 498.773438 350.671875 499.15625 C 350.289062 499.539062 349.890625 499.898438 349.472656 500.242188 C 349.054688 500.585938 348.621094 500.90625 348.171875 501.207031 C 347.722656 501.507812 347.257812 501.785156 346.78125 502.039062 C 346.304688 502.292969 345.816406 502.527344 345.320312 502.730469 C 344.820312 502.9375 344.3125 503.121094 343.792969 503.277344 C 343.277344 503.433594 342.753906 503.566406 342.222656 503.671875 C 341.695312 503.777344 341.160156 503.855469 340.621094 503.910156 C 340.085938 503.960938 339.546875 503.988281 339.003906 503.988281 Z M 223.515625 470.992188 L 322.507812 470.992188 L 322.507812 372 L 223.515625 372 Z M 223.515625 470.992188 " fill-opacity="1" fill-rule="nonzero"/><path fill="#ffd068" d="M 520.488281 602.976562 C 517.679688 602.980469 515.046875 602.308594 512.582031 600.964844 L 331.101562 501.976562 C 329.800781 501.265625 328.617188 500.394531 327.550781 499.367188 C 326.484375 498.339844 325.574219 497.1875 324.816406 495.910156 C 324.058594 494.636719 323.488281 493.285156 323.09375 491.855469 C 322.703125 490.425781 322.507812 488.972656 322.507812 487.488281 L 322.507812 355.503906 C 322.507812 354.019531 322.703125 352.566406 323.09375 351.136719 C 323.488281 349.707031 324.058594 348.355469 324.816406 347.082031 C 325.574219 345.804688 326.484375 344.65625 327.550781 343.625 C 328.617188 342.597656 329.800781 341.726562 331.101562 341.019531 L 512.582031 242.027344 C 512.894531 241.859375 513.214844 241.699219 513.535156 241.546875 C 513.859375 241.398438 514.1875 241.257812 514.519531 241.128906 C 514.851562 241 515.1875 240.882812 515.527344 240.777344 C 515.863281 240.667969 516.207031 240.574219 516.554688 240.488281 C 516.898438 240.402344 517.246094 240.328125 517.597656 240.265625 C 517.949219 240.203125 518.300781 240.152344 518.652344 240.113281 C 519.007812 240.074219 519.363281 240.046875 519.71875 240.03125 C 520.074219 240.015625 520.429688 240.007812 520.785156 240.015625 C 521.140625 240.023438 521.496094 240.039062 521.851562 240.070312 C 522.207031 240.097656 522.558594 240.140625 522.910156 240.191406 C 523.261719 240.242188 523.613281 240.308594 523.960938 240.382812 C 524.308594 240.457031 524.65625 240.542969 524.996094 240.640625 C 525.339844 240.738281 525.679688 240.847656 526.011719 240.964844 C 526.347656 241.085938 526.679688 241.214844 527.007812 241.355469 C 527.335938 241.496094 527.65625 241.648438 527.972656 241.808594 C 528.289062 241.96875 528.601562 242.140625 528.910156 242.324219 C 529.214844 242.503906 529.515625 242.695312 529.808594 242.898438 C 530.101562 243.097656 530.386719 243.308594 530.667969 243.53125 C 530.949219 243.75 531.222656 243.976562 531.488281 244.214844 C 531.75 244.453125 532.007812 244.699219 532.257812 244.953125 C 532.507812 245.207031 532.75 245.46875 532.980469 245.738281 C 533.214844 246.007812 533.4375 246.285156 533.652344 246.566406 C 533.867188 246.851562 534.070312 247.140625 534.265625 247.441406 C 534.460938 247.738281 534.648438 248.039062 534.824219 248.351562 C 535 248.660156 535.167969 248.972656 535.324219 249.292969 C 535.476562 249.613281 535.625 249.9375 535.757812 250.269531 C 535.894531 250.597656 536.015625 250.929688 536.128906 251.269531 C 536.242188 251.605469 536.34375 251.945312 536.4375 252.292969 C 536.527344 252.636719 536.605469 252.980469 536.675781 253.332031 C 536.742188 253.679688 536.800781 254.03125 536.847656 254.382812 C 536.894531 254.738281 536.925781 255.089844 536.949219 255.445312 C 536.972656 255.800781 536.984375 256.15625 536.984375 256.515625 L 536.984375 586.480469 C 536.984375 587.019531 536.957031 587.558594 536.90625 588.097656 C 536.851562 588.632812 536.773438 589.167969 536.667969 589.699219 C 536.5625 590.226562 536.429688 590.75 536.273438 591.269531 C 536.117188 591.785156 535.933594 592.292969 535.730469 592.792969 C 535.523438 593.292969 535.292969 593.78125 535.035156 594.257812 C 534.78125 594.734375 534.503906 595.195312 534.203125 595.644531 C 533.902344 596.09375 533.582031 596.527344 533.238281 596.945312 C 532.898438 597.363281 532.535156 597.761719 532.152344 598.144531 C 531.769531 598.527344 531.371094 598.890625 530.953125 599.234375 C 530.535156 599.574219 530.101562 599.898438 529.652344 600.199219 C 529.203125 600.496094 528.738281 600.773438 528.261719 601.03125 C 527.785156 601.285156 527.300781 601.515625 526.800781 601.722656 C 526.300781 601.929688 525.792969 602.109375 525.277344 602.265625 C 524.757812 602.425781 524.234375 602.554688 523.703125 602.660156 C 523.175781 602.765625 522.640625 602.84375 522.101562 602.898438 C 521.566406 602.953125 521.027344 602.976562 520.488281 602.976562 Z M 355.503906 477.691406 L 503.988281 558.679688 L 503.988281 284.3125 L 355.503906 365.304688 Z M 355.503906 477.691406 " fill-opacity="1" fill-rule="nonzero"/><path fill="#ffd068" d="M 207.019531 470.992188 L 141.027344 470.992188 C 140.484375 470.992188 139.945312 470.964844 139.410156 470.910156 C 138.871094 470.859375 138.335938 470.78125 137.808594 470.675781 C 137.277344 470.570312 136.753906 470.4375 136.238281 470.28125 C 135.71875 470.125 135.210938 469.941406 134.710938 469.734375 C 134.210938 469.527344 133.726562 469.296875 133.25 469.042969 C 132.773438 468.789062 132.308594 468.511719 131.859375 468.210938 C 131.410156 467.910156 130.976562 467.589844 130.558594 467.246094 C 130.140625 466.902344 129.742188 466.542969 129.359375 466.160156 C 128.976562 465.777344 128.613281 465.378906 128.273438 464.960938 C 127.929688 464.542969 127.609375 464.109375 127.308594 463.660156 C 127.007812 463.210938 126.730469 462.746094 126.476562 462.269531 C 126.222656 461.792969 125.988281 461.304688 125.785156 460.808594 C 125.578125 460.308594 125.394531 459.800781 125.238281 459.28125 C 125.082031 458.765625 124.949219 458.242188 124.84375 457.710938 C 124.738281 457.183594 124.660156 456.648438 124.605469 456.109375 C 124.554688 455.574219 124.527344 455.035156 124.527344 454.492188 L 124.527344 388.5 C 124.527344 387.960938 124.554688 387.421875 124.605469 386.882812 C 124.660156 386.34375 124.738281 385.8125 124.84375 385.28125 C 124.949219 384.75 125.082031 384.226562 125.238281 383.710938 C 125.394531 383.195312 125.578125 382.6875 125.785156 382.1875 C 125.988281 381.6875 126.222656 381.199219 126.476562 380.722656 C 126.730469 380.246094 127.007812 379.785156 127.308594 379.335938 C 127.609375 378.886719 127.929688 378.453125 128.273438 378.035156 C 128.613281 377.617188 128.976562 377.214844 129.359375 376.832031 C 129.742188 376.453125 130.140625 376.089844 130.558594 375.746094 C 130.976562 375.402344 131.410156 375.082031 131.859375 374.78125 C 132.308594 374.480469 132.773438 374.203125 133.25 373.949219 C 133.726562 373.695312 134.210938 373.464844 134.710938 373.257812 C 135.210938 373.050781 135.71875 372.867188 136.238281 372.710938 C 136.753906 372.554688 137.277344 372.425781 137.808594 372.320312 C 138.335938 372.214844 138.871094 372.132812 139.410156 372.082031 C 139.945312 372.027344 140.484375 372 141.027344 372 L 207.019531 372 C 207.558594 372 208.097656 372.027344 208.636719 372.082031 C 209.171875 372.132812 209.707031 372.214844 210.238281 372.320312 C 210.765625 372.425781 211.289062 372.554688 211.808594 372.710938 C 212.324219 372.867188 212.832031 373.050781 213.332031 373.257812 C 213.832031 373.464844 214.320312 373.695312 214.796875 373.949219 C 215.273438 374.203125 215.734375 374.480469 216.183594 374.78125 C 216.632812 375.082031 217.066406 375.402344 217.484375 375.746094 C 217.902344 376.089844 218.304688 376.453125 218.683594 376.832031 C 219.066406 377.214844 219.429688 377.617188 219.773438 378.035156 C 220.113281 378.453125 220.4375 378.886719 220.738281 379.335938 C 221.035156 379.785156 221.3125 380.246094 221.570312 380.722656 C 221.824219 381.199219 222.054688 381.6875 222.261719 382.1875 C 222.46875 382.6875 222.648438 383.195312 222.808594 383.710938 C 222.964844 384.226562 223.09375 384.75 223.199219 385.28125 C 223.304688 385.8125 223.382812 386.34375 223.4375 386.882812 C 223.492188 387.421875 223.515625 387.960938 223.515625 388.5 L 223.515625 454.492188 C 223.515625 455.035156 223.492188 455.574219 223.4375 456.109375 C 223.382812 456.648438 223.304688 457.183594 223.199219 457.710938 C 223.09375 458.242188 222.964844 458.765625 222.808594 459.28125 C 222.648438 459.800781 222.46875 460.308594 222.261719 460.808594 C 222.054688 461.304688 221.824219 461.792969 221.570312 462.269531 C 221.3125 462.746094 221.035156 463.210938 220.738281 463.660156 C 220.4375 464.109375 220.113281 464.542969 219.773438 464.960938 C 219.429688 465.378906 219.066406 465.777344 218.683594 466.160156 C 218.304688 466.542969 217.902344 466.902344 217.484375 467.246094 C 217.066406 467.589844 216.632812 467.910156 216.183594 468.210938 C 215.734375 468.511719 215.273438 468.789062 214.796875 469.042969 C 214.320312 469.296875 213.832031 469.527344 213.332031 469.734375 C 212.832031 469.941406 212.324219 470.125 211.808594 470.28125 C 211.289062 470.4375 210.765625 470.570312 210.238281 470.675781 C 209.707031 470.78125 209.171875 470.859375 208.636719 470.910156 C 208.097656 470.964844 207.558594 470.992188 207.019531 470.992188 Z M 157.523438 437.996094 L 190.519531 437.996094 L 190.519531 405 L 157.523438 405 Z M 157.523438 437.996094 " fill-opacity="1" fill-rule="nonzero"/><path fill="#ffd068" d="M 256.515625 405 L 289.511719 405 L 289.511719 437.996094 L 256.515625 437.996094 Z M 256.515625 405 " fill-opacity="1" fill-rule="nonzero"/><path fill="#ffd068" d="M 569.980469 553.484375 L 569.980469 520.488281 C 571.601562 520.488281 573.21875 520.445312 574.839844 520.367188 C 576.457031 520.289062 578.070312 520.167969 579.683594 520.007812 C 581.296875 519.851562 582.902344 519.652344 584.507812 519.414062 C 586.109375 519.175781 587.703125 518.898438 589.292969 518.585938 C 590.882812 518.269531 592.460938 517.914062 594.035156 517.519531 C 595.605469 517.125 597.167969 516.695312 598.714844 516.222656 C 600.265625 515.753906 601.804688 515.246094 603.328125 514.699219 C 604.855469 514.152344 606.367188 513.570312 607.863281 512.949219 C 609.359375 512.332031 610.839844 511.675781 612.304688 510.980469 C 613.769531 510.289062 615.214844 509.5625 616.644531 508.796875 C 618.074219 508.035156 619.484375 507.234375 620.871094 506.402344 C 622.261719 505.570312 623.628906 504.703125 624.976562 503.804688 C 626.324219 502.902344 627.648438 501.972656 628.949219 501.007812 C 630.25 500.039062 631.527344 499.042969 632.78125 498.015625 C 634.03125 496.988281 635.257812 495.929688 636.457031 494.84375 C 637.660156 493.753906 638.832031 492.636719 639.976562 491.492188 C 641.121094 490.347656 642.238281 489.175781 643.328125 487.972656 C 644.414062 486.773438 645.472656 485.546875 646.5 484.296875 C 647.527344 483.042969 648.527344 481.765625 649.492188 480.464844 C 650.457031 479.164062 651.386719 477.839844 652.289062 476.492188 C 653.1875 475.144531 654.054688 473.777344 654.886719 472.386719 C 655.71875 470.996094 656.519531 469.589844 657.28125 468.160156 C 658.046875 466.730469 658.773438 465.285156 659.464844 463.820312 C 660.160156 462.355469 660.816406 460.875 661.4375 459.378906 C 662.054688 457.882812 662.636719 456.371094 663.183594 454.84375 C 663.730469 453.320312 664.238281 451.78125 664.707031 450.230469 C 665.179688 448.679688 665.609375 447.121094 666.003906 445.550781 C 666.398438 443.976562 666.753906 442.398438 667.070312 440.808594 C 667.386719 439.21875 667.660156 437.625 667.898438 436.019531 C 668.136719 434.417969 668.335938 432.8125 668.496094 431.199219 C 668.652344 429.585938 668.773438 427.972656 668.851562 426.355469 C 668.929688 424.734375 668.972656 423.117188 668.972656 421.496094 C 668.972656 419.875 668.929688 418.257812 668.851562 416.640625 C 668.773438 415.019531 668.652344 413.40625 668.496094 411.792969 C 668.335938 410.183594 668.136719 408.574219 667.898438 406.972656 C 667.660156 405.371094 667.386719 403.773438 667.070312 402.183594 C 666.753906 400.597656 666.398438 399.015625 666.003906 397.445312 C 665.609375 395.871094 665.179688 394.3125 664.707031 392.761719 C 664.238281 391.210938 663.730469 389.671875 663.183594 388.148438 C 662.636719 386.621094 662.054688 385.113281 661.4375 383.613281 C 660.816406 382.117188 660.160156 380.636719 659.464844 379.171875 C 658.773438 377.707031 658.046875 376.261719 657.28125 374.832031 C 656.519531 373.40625 655.71875 371.996094 654.886719 370.605469 C 654.054688 369.214844 653.1875 367.847656 652.289062 366.5 C 651.386719 365.152344 650.457031 363.828125 649.492188 362.527344 C 648.527344 361.226562 647.527344 359.949219 646.5 358.699219 C 645.472656 357.445312 644.414062 356.21875 643.328125 355.019531 C 642.238281 353.820312 641.121094 352.644531 639.976562 351.5 C 638.832031 350.355469 637.660156 349.238281 636.457031 348.148438 C 635.257812 347.0625 634.03125 346.003906 632.78125 344.976562 C 631.527344 343.949219 630.25 342.953125 628.949219 341.988281 C 627.648438 341.023438 626.324219 340.089844 624.976562 339.191406 C 623.628906 338.289062 622.261719 337.421875 620.871094 336.589844 C 619.484375 335.757812 618.074219 334.960938 616.644531 334.195312 C 615.214844 333.433594 613.769531 332.703125 612.304688 332.011719 C 610.839844 331.316406 609.359375 330.660156 607.863281 330.042969 C 606.367188 329.421875 604.855469 328.839844 603.328125 328.292969 C 601.804688 327.746094 600.265625 327.238281 598.714844 326.769531 C 597.167969 326.300781 595.605469 325.867188 594.035156 325.472656 C 592.460938 325.078125 590.882812 324.726562 589.292969 324.410156 C 587.703125 324.09375 586.109375 323.816406 584.507812 323.578125 C 582.902344 323.339844 581.296875 323.140625 579.683594 322.984375 C 578.070312 322.824219 576.457031 322.707031 574.839844 322.625 C 573.21875 322.546875 571.601562 322.507812 569.980469 322.507812 L 569.980469 289.511719 C 572.140625 289.511719 574.300781 289.5625 576.457031 289.667969 C 578.613281 289.773438 580.769531 289.933594 582.917969 290.144531 C 585.066406 290.359375 587.210938 290.621094 589.347656 290.9375 C 591.484375 291.253906 593.613281 291.625 595.730469 292.046875 C 597.847656 292.46875 599.957031 292.941406 602.050781 293.464844 C 604.148438 293.992188 606.226562 294.566406 608.292969 295.195312 C 610.363281 295.820312 612.414062 296.496094 614.445312 297.226562 C 616.480469 297.953125 618.496094 298.730469 620.488281 299.558594 C 622.484375 300.382812 624.460938 301.257812 626.414062 302.183594 C 628.367188 303.105469 630.292969 304.078125 632.199219 305.09375 C 634.105469 306.113281 635.984375 307.175781 637.835938 308.289062 C 639.6875 309.398438 641.511719 310.554688 643.308594 311.753906 C 645.105469 312.953125 646.871094 314.199219 648.605469 315.484375 C 650.339844 316.769531 652.042969 318.097656 653.710938 319.46875 C 655.382812 320.839844 657.015625 322.25 658.617188 323.703125 C 660.21875 325.152344 661.78125 326.640625 663.308594 328.167969 C 664.835938 329.695312 666.324219 331.257812 667.777344 332.859375 C 669.226562 334.460938 670.636719 336.09375 672.007812 337.765625 C 673.378906 339.433594 674.707031 341.136719 675.992188 342.871094 C 677.28125 344.605469 678.523438 346.371094 679.722656 348.167969 C 680.921875 349.964844 682.078125 351.789062 683.191406 353.640625 C 684.300781 355.496094 685.363281 357.375 686.382812 359.277344 C 687.402344 361.183594 688.371094 363.113281 689.296875 365.066406 C 690.21875 367.019531 691.09375 368.992188 691.921875 370.988281 C 692.746094 372.984375 693.523438 374.996094 694.253906 377.03125 C 694.980469 379.066406 695.65625 381.117188 696.285156 383.183594 C 696.910156 385.25 697.488281 387.332031 698.011719 389.425781 C 698.535156 391.523438 699.011719 393.628906 699.429688 395.746094 C 699.851562 397.867188 700.222656 399.992188 700.539062 402.128906 C 700.855469 404.265625 701.121094 406.410156 701.332031 408.558594 C 701.542969 410.710938 701.703125 412.863281 701.808594 415.019531 C 701.914062 417.179688 701.96875 419.335938 701.96875 421.496094 C 701.96875 423.65625 701.914062 425.816406 701.808594 427.972656 C 701.703125 430.128906 701.542969 432.285156 701.332031 434.433594 C 701.121094 436.582031 700.855469 438.726562 700.539062 440.863281 C 700.222656 443 699.851562 445.128906 699.429688 447.246094 C 699.011719 449.363281 698.535156 451.472656 698.011719 453.566406 C 697.488281 455.660156 696.910156 457.742188 696.285156 459.808594 C 695.65625 461.878906 694.980469 463.925781 694.253906 465.960938 C 693.523438 467.996094 692.746094 470.011719 691.921875 472.003906 C 691.09375 474 690.21875 475.976562 689.296875 477.929688 C 688.371094 479.878906 687.402344 481.808594 686.382812 483.714844 C 685.363281 485.621094 684.300781 487.5 683.191406 489.351562 C 682.078125 491.203125 680.921875 493.027344 679.722656 494.824219 C 678.523438 496.621094 677.28125 498.386719 675.992188 500.121094 C 674.707031 501.855469 673.378906 503.558594 672.007812 505.226562 C 670.636719 506.898438 669.226562 508.53125 667.777344 510.132812 C 666.324219 511.734375 664.835938 513.296875 663.308594 514.824219 C 661.78125 516.351562 660.21875 517.839844 658.617188 519.292969 C 657.015625 520.742188 655.382812 522.152344 653.710938 523.523438 C 652.042969 524.894531 650.339844 526.222656 648.605469 527.507812 C 646.871094 528.796875 645.105469 530.039062 643.308594 531.238281 C 641.511719 532.4375 639.6875 533.59375 637.835938 534.703125 C 635.984375 535.816406 634.105469 536.878906 632.199219 537.898438 C 630.292969 538.917969 628.367188 539.886719 626.414062 540.8125 C 624.460938 541.734375 622.484375 542.609375 620.488281 543.4375 C 618.496094 544.261719 616.480469 545.039062 614.445312 545.765625 C 612.414062 546.496094 610.363281 547.171875 608.292969 547.800781 C 606.226562 548.425781 604.148438 549.003906 602.050781 549.527344 C 599.957031 550.050781 597.847656 550.527344 595.730469 550.945312 C 593.613281 551.367188 591.484375 551.738281 589.347656 552.054688 C 587.210938 552.371094 585.066406 552.636719 582.917969 552.847656 C 580.769531 553.058594 578.613281 553.21875 576.457031 553.324219 C 574.300781 553.429688 572.140625 553.484375 569.980469 553.484375 Z M 569.980469 553.484375 " fill-opacity="1" fill-rule="nonzero"/><path fill="#ffd068" d="M 569.980469 487.488281 L 569.980469 454.492188 C 571.0625 454.492188 572.140625 454.441406 573.214844 454.335938 C 574.289062 454.226562 575.359375 454.070312 576.417969 453.859375 C 577.476562 453.648438 578.527344 453.386719 579.558594 453.074219 C 580.59375 452.757812 581.609375 452.394531 582.609375 451.980469 C 583.605469 451.566406 584.582031 451.105469 585.535156 450.597656 C 586.488281 450.085938 587.414062 449.53125 588.3125 448.933594 C 589.210938 448.332031 590.078125 447.6875 590.914062 447.003906 C 591.75 446.316406 592.550781 445.59375 593.3125 444.828125 C 594.078125 444.066406 594.800781 443.265625 595.488281 442.429688 C 596.171875 441.59375 596.816406 440.726562 597.417969 439.828125 C 598.015625 438.929688 598.570312 438.003906 599.082031 437.050781 C 599.589844 436.097656 600.050781 435.121094 600.464844 434.125 C 600.878906 433.125 601.242188 432.109375 601.558594 431.074219 C 601.871094 430.039062 602.132812 428.992188 602.34375 427.933594 C 602.554688 426.875 602.714844 425.804688 602.820312 424.730469 C 602.925781 423.65625 602.976562 422.578125 602.976562 421.496094 C 602.976562 420.414062 602.925781 419.339844 602.820312 418.261719 C 602.714844 417.1875 602.554688 416.121094 602.34375 415.058594 C 602.132812 414 601.871094 412.953125 601.558594 411.917969 C 601.242188 410.882812 600.878906 409.867188 600.464844 408.871094 C 600.050781 407.871094 599.589844 406.894531 599.082031 405.941406 C 598.570312 404.988281 598.015625 404.0625 597.417969 403.164062 C 596.816406 402.265625 596.171875 401.398438 595.488281 400.5625 C 594.800781 399.726562 594.078125 398.929688 593.3125 398.164062 C 592.550781 397.398438 591.75 396.675781 590.914062 395.988281 C 590.078125 395.304688 589.210938 394.660156 588.3125 394.0625 C 587.414062 393.460938 586.488281 392.90625 585.535156 392.394531 C 584.582031 391.886719 583.605469 391.425781 582.609375 391.011719 C 581.609375 390.597656 580.59375 390.234375 579.558594 389.921875 C 578.527344 389.605469 577.476562 389.34375 576.417969 389.132812 C 575.359375 388.921875 574.289062 388.765625 573.214844 388.660156 C 572.140625 388.554688 571.0625 388.5 569.980469 388.5 L 569.980469 355.503906 C 571.0625 355.503906 572.140625 355.53125 573.21875 355.582031 C 574.296875 355.636719 575.375 355.714844 576.449219 355.820312 C 577.523438 355.925781 578.597656 356.058594 579.664062 356.21875 C 580.734375 356.375 581.796875 356.5625 582.855469 356.769531 C 583.914062 356.980469 584.96875 357.21875 586.015625 357.480469 C 587.0625 357.742188 588.105469 358.03125 589.136719 358.34375 C 590.171875 358.660156 591.195312 358.996094 592.214844 359.359375 C 593.230469 359.726562 594.238281 360.113281 595.234375 360.527344 C 596.234375 360.941406 597.21875 361.378906 598.195312 361.839844 C 599.171875 362.300781 600.136719 362.785156 601.089844 363.296875 C 602.042969 363.804688 602.980469 364.335938 603.910156 364.890625 C 604.835938 365.449219 605.746094 366.023438 606.644531 366.625 C 607.542969 367.226562 608.425781 367.847656 609.292969 368.492188 C 610.160156 369.132812 611.011719 369.796875 611.847656 370.484375 C 612.679688 371.167969 613.5 371.875 614.300781 372.597656 C 615.101562 373.324219 615.882812 374.070312 616.644531 374.832031 C 617.410156 375.597656 618.152344 376.378906 618.878906 377.179688 C 619.605469 377.980469 620.308594 378.796875 620.996094 379.632812 C 621.679688 380.464844 622.34375 381.316406 622.988281 382.183594 C 623.628906 383.050781 624.253906 383.933594 624.851562 384.832031 C 625.453125 385.730469 626.03125 386.644531 626.585938 387.570312 C 627.140625 388.496094 627.671875 389.433594 628.183594 390.386719 C 628.691406 391.339844 629.175781 392.304688 629.636719 393.28125 C 630.101562 394.257812 630.539062 395.246094 630.949219 396.242188 C 631.363281 397.238281 631.753906 398.246094 632.117188 399.265625 C 632.480469 400.28125 632.820312 401.304688 633.132812 402.339844 C 633.445312 403.375 633.734375 404.414062 633.996094 405.460938 C 634.257812 406.507812 634.496094 407.5625 634.707031 408.621094 C 634.917969 409.679688 635.101562 410.746094 635.261719 411.8125 C 635.417969 412.882812 635.550781 413.953125 635.65625 415.027344 C 635.761719 416.101562 635.84375 417.179688 635.894531 418.257812 C 635.949219 419.335938 635.972656 420.417969 635.972656 421.496094 C 635.972656 422.578125 635.949219 423.65625 635.894531 424.734375 C 635.84375 425.8125 635.761719 426.890625 635.65625 427.964844 C 635.550781 429.039062 635.417969 430.113281 635.261719 431.179688 C 635.101562 432.25 634.917969 433.3125 634.707031 434.371094 C 634.496094 435.429688 634.257812 436.484375 633.996094 437.53125 C 633.734375 438.578125 633.445312 439.621094 633.132812 440.652344 C 632.820312 441.6875 632.480469 442.710938 632.117188 443.730469 C 631.753906 444.746094 631.363281 445.753906 630.949219 446.75 C 630.539062 447.75 630.101562 448.734375 629.636719 449.710938 C 629.175781 450.6875 628.691406 451.652344 628.183594 452.605469 C 627.671875 453.558594 627.140625 454.496094 626.585938 455.421875 C 626.03125 456.351562 625.453125 457.261719 624.851562 458.160156 C 624.253906 459.058594 623.628906 459.941406 622.988281 460.808594 C 622.34375 461.675781 621.679688 462.527344 620.996094 463.363281 C 620.308594 464.195312 619.605469 465.015625 618.878906 465.816406 C 618.152344 466.613281 617.410156 467.398438 616.644531 468.160156 C 615.882812 468.925781 615.101562 469.667969 614.300781 470.394531 C 613.5 471.121094 612.679688 471.824219 611.847656 472.511719 C 611.011719 473.195312 610.160156 473.859375 609.292969 474.503906 C 608.425781 475.144531 607.542969 475.769531 606.644531 476.367188 C 605.746094 476.96875 604.835938 477.546875 603.910156 478.101562 C 602.980469 478.65625 602.042969 479.1875 601.089844 479.699219 C 600.136719 480.207031 599.171875 480.691406 598.195312 481.152344 C 597.21875 481.617188 596.234375 482.054688 595.234375 482.464844 C 594.238281 482.878906 593.230469 483.269531 592.214844 483.632812 C 591.195312 483.996094 590.171875 484.335938 589.136719 484.648438 C 588.105469 484.960938 587.0625 485.25 586.015625 485.511719 C 584.96875 485.773438 583.914062 486.011719 582.855469 486.222656 C 581.796875 486.433594 580.734375 486.617188 579.664062 486.777344 C 578.597656 486.933594 577.523438 487.066406 576.449219 487.171875 C 575.375 487.277344 574.296875 487.355469 573.21875 487.410156 C 572.140625 487.464844 571.0625 487.488281 569.980469 487.488281 Z M 569.980469 487.488281 " fill-opacity="1" fill-rule="nonzero"/><path fill="#ffd068" d="M 569.980469 635.972656 L 734.964844 635.972656 L 734.964844 668.972656 L 569.980469 668.972656 Z M 569.980469 635.972656 " fill-opacity="1" fill-rule="nonzero"/><path fill="#ffd068" d="M 602.976562 701.96875 L 734.964844 701.96875 L 734.964844 734.964844 L 602.976562 734.964844 Z M 602.976562 701.96875 " fill-opacity="1" fill-rule="nonzero"/><path fill="#ffd068" d="M 701.96875 91.53125 L 734.964844 91.53125 L 734.964844 124.527344 L 701.96875 124.527344 Z M 701.96875 91.53125 " fill-opacity="1" fill-rule="nonzero"/><path fill="#ffd068" d="M 635.972656 91.53125 L 668.972656 91.53125 L 668.972656 124.527344 L 635.972656 124.527344 Z M 635.972656 91.53125 " fill-opacity="1" fill-rule="nonzero"/></svg>